# 3ds Max Wavefront OBJ Exporter v0.97b - (c)2007 guruware
# File Created: 09.08.2018 09:31:19

mtllib cave_tile_7.mtl

#
# object cave_tile_7
#

v  -0.0000 0.0000 -10.0000
v  -2.3096 0.0000 -10.0000
v  -2.3096 0.0000 -8.7927
v  -0.0000 0.0000 -8.7927
v  -2.6645 1.8712 -10.0000
v  -2.6645 1.8712 -8.7927
v  -1.9355 3.8735 -10.0000
v  -1.9355 3.8735 -8.7927
v  -0.0000 4.8268 -10.0000
v  -0.0000 4.8268 -8.7927
v  1.9355 3.8735 -10.0000
v  1.9355 3.8735 -8.7927
v  2.6645 1.8712 -10.0000
v  2.6645 1.8712 -8.7927
v  2.3096 0.0000 -10.0000
v  2.3096 0.0000 -8.7927
v  10.0000 0.0000 -0.0000
v  10.0000 0.0000 -2.3096
v  8.8918 0.0000 -2.3018
v  8.8918 0.0000 0.0079
v  10.0000 1.8712 -2.6645
v  8.8918 1.8712 -2.6566
v  10.0000 3.8735 -1.9355
v  8.8918 3.8735 -1.9277
v  10.0000 4.8268 -0.0000
v  8.8918 4.8268 0.0079
v  10.0000 3.8735 1.9355
v  8.8918 3.8735 1.9434
v  10.0000 1.8712 2.6645
v  8.8918 1.8712 2.6723
v  10.0000 0.0000 2.3096
v  8.8918 0.0000 2.3175
v  0.0000 0.0000 10.0000
v  2.3096 0.0000 10.0000
v  2.3013 0.0000 8.9315
v  -0.0083 0.0000 8.9315
v  2.6645 1.8712 10.0000
v  2.6562 1.8712 8.9315
v  1.9355 3.8735 10.0000
v  1.9272 3.8735 8.9315
v  0.0000 4.8268 10.0000
v  -0.0083 4.8268 8.9315
v  -1.9355 3.8735 10.0000
v  -1.9438 3.8735 8.9315
v  -2.6645 1.8712 10.0000
v  -2.6728 1.8712 8.9315
v  -2.3096 0.0000 10.0000
v  -2.3179 0.0000 8.9315
v  -10.0000 0.0000 0.0000
v  -10.0000 0.0000 2.3096
v  -8.5808 0.0000 2.3096
v  -8.5808 0.0000 -0.0000
v  -10.0000 1.8712 2.6645
v  -8.5808 1.8712 2.6645
v  -10.0000 3.8735 1.9355
v  -8.5808 3.8735 1.9355
v  -10.0000 4.8268 0.0000
v  -8.5808 4.8268 -0.0000
v  -10.0000 3.8735 -1.9355
v  -8.5808 3.8735 -1.9355
v  -10.0000 1.8712 -2.6645
v  -8.5808 1.8712 -2.6645
v  -10.0000 0.0000 -2.3096
v  -8.5808 0.0000 -2.3096
v  -2.8162 0.0000 -7.5272
v  -0.5066 0.0000 -7.5272
v  -3.1711 1.8712 -7.5272
v  -2.4421 3.8735 -7.5272
v  -0.5066 4.8268 -7.5272
v  1.4289 3.8735 -7.5272
v  2.1579 1.8712 -7.5272
v  1.8030 0.0000 -7.5272
v  -4.5609 0.0000 -6.4425
v  -2.4515 0.0000 -6.1217
v  -4.9174 1.8712 -6.4839
v  -4.2102 3.8735 -6.4191
v  -2.4515 4.8268 -6.1217
v  -0.3784 3.8735 -6.4058
v  0.3483 1.8712 -6.4839
v  -0.0277 0.0000 -6.4291
v  -5.8554 0.0000 0.2726
v  -5.1713 0.0000 2.1593
v  -5.4275 0.0000 3.6453
v  -4.6147 0.0000 2.7020
v  -5.6671 1.8712 2.6935
v  -5.8529 1.8712 3.9125
v  -4.9842 3.8735 1.9722
v  -5.1469 3.8735 3.5518
v  -5.8554 4.8268 0.2726
v  -4.6147 4.8268 2.7020
v  -1.8157 3.8735 2.9046
v  -1.3025 3.8735 4.0180
v  -1.0786 1.8712 3.6594
v  -1.2188 1.8712 4.3954
v  -1.6287 0.0000 3.0916
v  -1.6712 0.0000 4.1115
v  -0.5840 0.0000 7.3996
v  -2.8936 0.0000 7.3996
v  -3.2485 1.8712 7.3996
v  -2.5195 3.8735 7.3996
v  -0.5840 4.8268 7.3996
v  1.3515 3.8735 7.3996
v  2.0805 1.8712 7.3996
v  1.7256 0.0000 7.3996
v  -6.5635 0.0000 -2.2943
v  -6.9313 1.8712 -2.6255
v  -6.3764 3.8735 -2.1073
v  -0.2732 0.0000 2.7315
v  -1.5032 0.0000 0.4219
v  -2.6328 0.0000 -2.1872
v  -1.5032 0.0000 -1.8877
v  -0.2732 1.8712 3.0864
v  -2.1082 1.8712 -2.6250
v  -1.5032 1.8712 -2.2426
v  -2.8198 3.8735 -2.0002
v  -1.5032 3.8735 -1.5136
v  -1.5032 4.8268 0.4219
v  -0.2732 3.8735 2.3574
v  4.9819 0.0000 2.8455
v  4.9819 0.0000 0.5359
v  4.9819 0.0000 -1.7737
v  4.9819 1.8712 3.2004
v  4.9819 1.8712 -2.1286
v  4.9819 3.8735 -1.3996
v  4.9819 4.8268 0.5359
v  4.9819 3.8735 2.4714
v  7.0301 0.0000 2.5698
v  7.0301 0.0000 0.2602
v  7.0301 0.0000 -2.0494
v  7.0301 1.8712 2.9246
v  7.0301 1.8712 -2.4043
v  7.0301 3.8735 -1.6754
v  7.0301 4.8268 0.2602
v  7.0301 3.8735 2.1957
v  -6.3473 0.0000 -3.3439
v  -4.8384 0.0000 -2.0604
v  -6.7086 1.8712 -3.5095
v  -6.0667 3.8735 -3.2503
v  -4.8384 4.8268 -2.0604
v  -2.8279 3.8735 -3.1470
v  -2.1076 1.8712 -3.4594
v  -2.5474 0.0000 -3.2405
v  -5.7047 0.0000 -5.3578
v  -3.7955 0.0000 -4.7161
v  -6.0628 1.8712 -5.4406
v  -5.3774 3.8735 -5.3111
v  -3.7955 4.8268 -4.7161
v  -1.5849 3.8735 -5.2843
v  -0.8603 1.8712 -5.4405
v  -1.2576 0.0000 -5.3311
v  -4.9075 0.0000 5.3686
v  -3.3463 0.0000 4.8969
v  -5.2976 1.8712 5.5021
v  -4.5802 3.8735 5.3218
v  -3.3463 4.8268 4.8969
v  -1.0471 3.8735 5.5549
v  -0.3161 1.8712 5.7436
v  -0.7198 0.0000 5.6017
# 158 vertices

vn 0.0000 1.0000 -0.0000
vn 0.6378 0.7702 -0.0000
vn 0.5784 0.8084 0.1090
vn 0.9967 -0.0808 -0.0000
vn 0.9774 -0.0820 0.1948
vn 0.7444 -0.6677 -0.0000
vn 0.7145 -0.6853 0.1407
vn 0.0000 -1.0000 -0.0000
vn -0.0528 -0.9984 -0.0211
vn -0.7444 -0.6677 0.0000
vn -0.7531 -0.6416 -0.1457
vn -0.9967 -0.0808 0.0000
vn -0.9800 -0.0773 -0.1831
vn -0.6378 0.7702 0.0000
vn -0.6678 0.7326 -0.1318
vn 0.0045 0.7687 0.6395
vn 0.0466 0.7575 0.6512
vn 0.0071 -0.0807 0.9967
vn 0.0699 -0.0798 0.9944
vn 0.0053 -0.6669 0.7452
vn 0.0532 -0.6596 0.7497
vn 0.0000 -1.0000 0.0020
vn 0.0026 -0.9998 0.0179
vn -0.0053 -0.6685 -0.7437
vn -0.0525 -0.6746 -0.7363
vn -0.0071 -0.0809 -0.9967
vn -0.0714 -0.0815 -0.9941
vn -0.0045 0.7716 -0.6361
vn -0.0437 0.7829 -0.6206
vn -0.6397 0.7686 0.0050
vn -0.6658 0.7353 0.1263
vn -0.9967 -0.0807 0.0078
vn -0.9811 -0.0775 0.1770
vn -0.7452 -0.6668 0.0058
vn -0.7525 -0.6435 0.1401
vn -0.0022 -1.0000 0.0000
vn -0.0488 -0.9986 0.0188
vn 0.7436 -0.6686 -0.0058
vn 0.7168 -0.6840 -0.1356
vn 0.9967 -0.0809 -0.0078
vn 0.9789 -0.0819 -0.1875
vn 0.6359 0.7717 -0.0049
vn 0.5832 0.8054 -0.1061
vn -0.0000 0.7702 -0.6378
vn -0.0142 0.7658 -0.6429
vn -0.0000 -0.0808 -0.9967
vn 0.0050 -0.0809 -0.9967
vn -0.0000 -0.6677 -0.7444
vn 0.0038 -0.6683 -0.7439
vn -0.0014 -0.9999 0.0140
vn 0.0000 -0.6677 0.7444
vn 0.0288 -0.6721 0.7399
vn 0.0000 -0.0808 0.9967
vn -0.0117 -0.0806 0.9967
vn 0.0000 0.7702 0.6378
vn -0.0024 0.7694 0.6387
vn 0.4405 0.8256 0.3525
vn 0.7342 -0.0620 0.6761
vn 0.5884 -0.6023 0.5395
vn -0.0607 -0.9884 -0.1395
vn -0.6275 -0.5700 -0.5304
vn -0.7757 -0.0635 -0.6279
vn -0.5364 0.6933 -0.4813
vn 0.4119 0.7316 0.5432
vn 0.6050 -0.0516 0.7946
vn 0.5134 -0.5513 0.6577
vn -0.0139 -0.9994 0.0313
vn -0.5245 -0.4699 -0.7100
vn -0.5666 -0.0405 -0.8230
vn -0.3900 0.7611 -0.5183
vn 0.6686 -0.4309 -0.6061
vn 0.6713 0.7406 -0.0282
vn 0.7800 -0.0563 -0.6232
vn 0.9923 -0.0564 -0.1103
vn 0.8862 0.0023 -0.4634
vn 0.8822 -0.4578 -0.1104
vn 0.0711 -0.9926 -0.0984
vn 0.1997 -0.9738 -0.1090
vn -0.4066 -0.9025 -0.1423
vn -0.7943 -0.5558 0.2453
vn -0.8551 -0.0465 -0.5164
vn -0.9642 0.1020 0.2448
vn -0.2785 0.9324 -0.2305
vn -0.5341 0.8364 0.1231
vn 0.5026 0.8058 -0.3132
vn 0.8151 -0.0688 -0.5752
vn 0.6418 -0.6365 -0.4277
vn -0.0557 -0.9935 0.0995
vn -0.6510 -0.5845 0.4844
vn -0.8040 -0.0655 0.5910
vn -0.5583 0.7022 0.4418
vn 0.2480 0.9218 0.2980
vn 0.5834 -0.0588 0.8101
vn 0.5105 -0.7312 0.4525
vn -0.0703 0.7985 -0.5978
vn -0.2876 0.9351 0.2073
vn -0.0827 0.7943 0.6019
vn -0.3091 -0.0811 -0.9476
vn -0.8887 -0.0495 0.4557
vn -0.2990 -0.0808 0.9508
vn -0.4232 -0.8557 0.2979
vn -0.1372 -0.6829 0.7175
vn 0.0009 -1.0000 -0.0061
vn -0.0988 -0.6981 -0.7092
vn -0.0371 0.7548 -0.6549
vn 0.0356 0.7854 0.6180
vn -0.0551 -0.0796 -0.9953
vn 0.0586 -0.0817 0.9949
vn 0.0430 -0.6763 0.7354
vn -0.0025 -0.9998 -0.0213
vn -0.0421 -0.6583 -0.7516
vn -0.0855 0.7696 -0.6328
vn 0.0854 0.7697 0.6326
vn -0.1334 -0.0801 -0.9878
vn 0.1334 -0.0802 0.9878
vn 0.0999 -0.6653 0.7398
vn -0.0000 -1.0000 -0.0001
vn -0.0999 -0.6652 -0.7399
vn 0.6223 0.7658 0.1621
vn 0.9577 -0.0617 0.2811
vn 0.7508 -0.6195 0.2290
vn -0.0282 -0.9995 -0.0139
vn -0.7423 -0.6299 -0.2286
vn -0.9481 -0.0510 -0.3137
vn -0.5491 0.8194 -0.1646
vn 0.5829 0.7212 0.3743
vn 0.8440 -0.0629 0.5327
vn 0.6699 -0.6030 0.4332
vn 0.0412 -0.9973 0.0602
vn -0.6389 -0.5546 -0.5332
vn -0.7427 -0.0473 -0.6679
vn -0.4844 0.7817 -0.3928
vn 0.5822 0.7327 -0.3524
vn 0.8414 -0.0609 -0.5369
vn 0.6994 -0.5728 -0.4275
vn 0.0633 -0.9933 -0.0966
vn -0.6572 -0.5903 0.4686
vn -0.6895 -0.0430 0.7230
vn -0.4615 0.7852 0.4128
# 139 vertex normals

vt 0.5000 0.0000 0.0000
vt 0.6250 0.0000 0.0000
vt 0.7500 0.5000 0.0000
vt 0.6250 0.5000 0.0000
vt 0.5000 0.5000 0.0000
vt 0.3750 0.5000 0.0000
vt 0.2500 0.5000 0.0000
vt 0.2500 0.0000 0.0000
# 8 texture coords

o cave_tile_7
g cave_tile_7
usemtl Cave_Ground
s off
f 1/1/1 2/2/2 3/2/3 4/1/1 
usemtl Cave_Walls
f 2/2/2 5/3/4 6/3/5 3/2/3 
f 5/3/4 7/4/6 8/4/7 6/3/5 
f 7/4/6 9/5/8 10/5/9 8/4/7 
f 9/5/8 11/6/10 12/6/11 10/5/9 
f 11/6/10 13/7/12 14/7/13 12/6/11 
f 13/7/12 15/8/14 16/8/15 14/7/13 
usemtl Cave_Ground
f 15/8/14 1/1/1 4/1/1 16/8/15 
f 17/1/1 18/2/16 19/2/17 20/1/1 
usemtl Cave_Walls
f 18/2/16 21/3/18 22/3/19 19/2/17 
f 21/3/18 23/4/20 24/4/21 22/3/19 
f 23/4/20 25/5/22 26/5/23 24/4/21 
f 25/5/22 27/6/24 28/6/25 26/5/23 
f 27/6/24 29/7/26 30/7/27 28/6/25 
f 29/7/26 31/8/28 32/8/29 30/7/27 
usemtl Cave_Ground
f 31/8/28 17/1/1 20/1/1 32/8/29 
f 33/1/1 34/2/30 35/2/31 36/1/1 
usemtl Cave_Walls
f 34/2/30 37/3/32 38/3/33 35/2/31 
f 37/3/32 39/4/34 40/4/35 38/3/33 
f 39/4/34 41/5/36 42/5/37 40/4/35 
f 41/5/36 43/6/38 44/6/39 42/5/37 
f 43/6/38 45/7/40 46/7/41 44/6/39 
f 45/7/40 47/8/42 48/8/43 46/7/41 
usemtl Cave_Ground
f 47/8/42 33/1/1 36/1/1 48/8/43 
f 49/1/1 50/2/44 51/2/45 52/1/1 
usemtl Cave_Walls
f 50/2/44 53/3/46 54/3/47 51/2/45 
f 53/3/46 55/4/48 56/4/49 54/3/47 
f 55/4/48 57/5/8 58/5/50 56/4/49 
f 57/5/8 59/6/51 60/6/52 58/5/50 
f 59/6/51 61/7/53 62/7/54 60/6/52 
f 61/7/53 63/8/55 64/8/56 62/7/54 
usemtl Cave_Ground
f 63/8/55 49/1/1 52/1/1 64/8/56 
f 4/1/1 3/2/3 65/2/57 66/1/1 
usemtl Cave_Walls
f 3/2/3 6/3/5 67/3/58 65/2/57 
f 6/3/5 8/4/7 68/4/59 67/3/58 
f 8/4/7 10/5/9 69/5/60 68/4/59 
f 10/5/9 12/6/11 70/6/61 69/5/60 
f 12/6/11 14/7/13 71/7/62 70/6/61 
f 14/7/13 16/8/15 72/8/63 71/7/62 
usemtl Cave_Ground
f 16/8/15 4/1/1 66/1/1 72/8/63 
f 66/1/1 65/2/57 73/2/64 74/1/1 
usemtl Cave_Walls
f 65/2/57 67/3/58 75/3/65 73/2/64 
f 67/3/58 68/4/59 76/4/66 75/3/65 
f 68/4/59 69/5/60 77/5/67 76/4/66 
f 69/5/60 70/6/61 78/6/68 77/5/67 
f 70/6/61 71/7/62 79/7/69 78/6/68 
f 71/7/62 72/8/63 80/8/70 79/7/69 
usemtl Cave_Ground
f 72/8/63 66/1/1 74/1/1 80/8/70 
f 81/1/1 82/2/71 83/2/72 84/1/1 
usemtl Cave_Walls
f 82/2/71 85/3/73 86/3/74 83/2/72 
f 85/3/73 87/4/75 88/4/76 86/3/74 
f 87/4/75 89/5/77 90/5/78 88/4/76 
f 89/5/77 91/6/79 92/6/80 90/5/78 
f 91/6/79 93/7/81 94/7/82 92/6/80 
f 93/7/81 95/8/83 96/8/84 94/7/82 
usemtl Cave_Ground
f 95/8/83 81/1/1 84/1/1 96/8/84 
f 97/1/1 98/2/85 48/2/43 36/1/1 
usemtl Cave_Walls
f 98/2/85 99/3/86 46/3/41 48/2/43 
f 99/3/86 100/4/87 44/4/39 46/3/41 
f 100/4/87 101/5/88 42/5/37 44/4/39 
f 101/5/88 102/6/89 40/6/35 42/5/37 
f 102/6/89 103/7/90 38/7/33 40/6/35 
f 103/7/90 104/8/91 35/8/31 38/7/33 
usemtl Cave_Ground
f 104/8/91 97/1/1 36/1/1 35/8/31 
f 52/1/1 51/2/45 82/2/71 81/1/1 
f 64/8/56 52/1/1 81/1/1 105/8/92 
usemtl Cave_Walls
f 51/2/45 54/3/47 85/3/73 82/2/71 
f 62/7/54 64/8/56 105/8/92 106/7/93 
f 60/6/52 62/7/54 106/7/93 107/6/94 
f 58/5/50 60/6/52 107/6/94 89/5/77 
f 56/4/49 58/5/50 89/5/77 87/4/75 
f 54/3/47 56/4/49 87/4/75 85/3/73 
usemtl Cave_Ground
f 81/1/1 95/2/83 108/2/95 109/1/1 
f 110/8/96 81/1/1 109/1/1 111/8/97 
usemtl Cave_Walls
f 95/2/83 93/3/81 112/3/98 108/2/95 
f 113/7/99 110/8/96 111/8/97 114/7/100 
f 115/6/101 113/7/99 114/7/100 116/6/102 
f 89/5/77 115/6/101 116/6/102 117/5/103 
f 91/4/79 89/5/77 117/5/103 118/4/104 
f 93/3/81 91/4/79 118/4/104 112/3/98 
usemtl Cave_Ground
f 109/1/1 108/2/95 119/2/105 120/1/1 
f 111/8/97 109/1/1 120/1/1 121/8/106 
usemtl Cave_Walls
f 108/2/95 112/3/98 122/3/107 119/2/105 
f 114/7/100 111/8/97 121/8/106 123/7/108 
f 116/6/102 114/7/100 123/7/108 124/6/109 
f 117/5/103 116/6/102 124/6/109 125/5/110 
f 118/4/104 117/5/103 125/5/110 126/4/111 
f 112/3/98 118/4/104 126/4/111 122/3/107 
usemtl Cave_Ground
f 120/1/1 119/2/105 127/2/112 128/1/1 
f 121/8/106 120/1/1 128/1/1 129/8/113 
usemtl Cave_Walls
f 119/2/105 122/3/107 130/3/114 127/2/112 
f 123/7/108 121/8/106 129/8/113 131/7/115 
f 124/6/109 123/7/108 131/7/115 132/6/116 
f 125/5/110 124/6/109 132/6/116 133/5/117 
f 126/4/111 125/5/110 133/5/117 134/4/118 
f 122/3/107 126/4/111 134/4/118 130/3/114 
usemtl Cave_Ground
f 128/1/1 127/2/112 32/2/29 20/1/1 
f 129/8/113 128/1/1 20/1/1 19/8/17 
usemtl Cave_Walls
f 127/2/112 130/3/114 30/3/27 32/2/29 
f 131/7/115 129/8/113 19/8/17 22/7/19 
f 132/6/116 131/7/115 22/7/19 24/6/21 
f 133/5/117 132/6/116 24/6/21 26/5/23 
f 134/4/118 133/5/117 26/5/23 28/4/25 
f 130/3/114 134/4/118 28/4/25 30/3/27 
usemtl Cave_Ground
f 135/2/119 105/2/92 81/1/1 136/1/1 
usemtl Cave_Walls
f 137/3/120 106/3/93 105/2/92 135/2/119 
f 138/4/121 107/4/94 106/3/93 137/3/120 
f 139/5/122 89/5/77 107/4/94 138/4/121 
f 140/6/123 115/6/101 89/5/77 139/5/122 
f 141/7/124 113/7/99 115/6/101 140/6/123 
f 142/8/125 110/8/96 113/7/99 141/7/124 
usemtl Cave_Ground
f 136/1/1 81/1/1 110/8/96 142/8/125 
f 143/2/126 135/2/119 136/1/1 144/1/1 
usemtl Cave_Walls
f 145/3/127 137/3/120 135/2/119 143/2/126 
f 146/4/128 138/4/121 137/3/120 145/3/127 
f 147/5/129 139/5/122 138/4/121 146/4/128 
f 148/6/130 140/6/123 139/5/122 147/5/129 
f 149/7/131 141/7/124 140/6/123 148/6/130 
f 150/8/132 142/8/125 141/7/124 149/7/131 
usemtl Cave_Ground
f 144/1/1 136/1/1 142/8/125 150/8/132 
f 83/2/72 151/2/133 152/1/1 84/1/1 
usemtl Cave_Walls
f 86/3/74 153/3/134 151/2/133 83/2/72 
f 88/4/76 154/4/135 153/3/134 86/3/74 
f 90/5/78 155/5/136 154/4/135 88/4/76 
f 92/6/80 156/6/137 155/5/136 90/5/78 
f 94/7/82 157/7/138 156/6/137 92/6/80 
f 96/8/84 158/8/139 157/7/138 94/7/82 
usemtl Cave_Ground
f 84/1/1 152/1/1 158/8/139 96/8/84 
f 151/2/133 98/2/85 97/1/1 152/1/1 
usemtl Cave_Walls
f 153/3/134 99/3/86 98/2/85 151/2/133 
f 154/4/135 100/4/87 99/3/86 153/3/134 
f 155/5/136 101/5/88 100/4/87 154/4/135 
f 156/6/137 102/6/89 101/5/88 155/5/136 
f 157/7/138 103/7/90 102/6/89 156/6/137 
f 158/8/139 104/8/91 103/7/90 157/7/138 
usemtl Cave_Ground
f 152/1/1 97/1/1 104/8/91 158/8/139 
f 73/2/64 143/2/126 144/1/1 74/1/1 
usemtl Cave_Walls
f 75/3/65 145/3/127 143/2/126 73/2/64 
f 76/4/66 146/4/128 145/3/127 75/3/65 
f 77/5/67 147/5/129 146/4/128 76/4/66 
f 78/6/68 148/6/130 147/5/129 77/5/67 
f 79/7/69 149/7/131 148/6/130 78/6/68 
f 80/8/70 150/8/132 149/7/131 79/7/69 
usemtl Cave_Ground
f 74/1/1 144/1/1 150/8/132 80/8/70 
# 144 polygons

