# 3ds Max Wavefront OBJ Exporter v0.97b - (c)2007 guruware
# File Created: 09.08.2018 10:52:47

mtllib cave_tile_start.mtl

#
# object cave_tile_start
#

v  -0.0000 0.0000 -10.0000
v  -2.3096 0.0000 -10.0000
v  -2.7077 0.0000 -8.7640
v  -0.0000 0.0000 -8.7640
v  -2.6645 1.8712 -10.0000
v  -3.0625 1.8712 -8.7640
v  -1.9355 3.8735 -10.0000
v  -2.3336 3.8735 -8.7640
v  -0.0000 4.8268 -10.0000
v  -0.0000 4.8268 -8.7640
v  1.9355 3.8735 -10.0000
v  1.9355 3.8735 -8.7640
v  2.6645 1.8712 -10.0000
v  2.6645 1.8712 -8.7640
v  2.3096 0.0000 -10.0000
v  2.3096 0.0000 -8.7640
v  10.0000 0.0000 -0.0000
v  10.0000 0.0000 -2.3096
v  8.8918 0.0000 -2.3018
v  8.8918 0.0000 0.0079
v  10.0000 1.8712 -2.6645
v  8.8918 1.8712 -2.6566
v  10.0000 3.8735 -1.9355
v  8.8918 3.8735 -1.9277
v  10.0000 4.8268 -0.0000
v  8.8918 4.8268 0.0079
v  10.0000 3.8735 1.9355
v  8.8918 3.8735 2.9776
v  10.0000 1.8712 2.6645
v  8.8918 1.8712 3.7066
v  10.0000 0.0000 2.3096
v  8.8918 0.0000 3.3517
v  0.0000 0.0000 10.0000
v  2.3013 0.0000 8.4915
v  -0.0083 0.0000 8.4915
v  2.6562 1.8712 8.4915
v  1.9272 3.8735 8.4915
v  -0.0083 4.8268 8.4915
v  -1.9438 3.8735 8.4915
v  -2.6728 1.8712 8.4915
v  -2.3179 0.0000 8.4915
v  -10.0000 0.0000 -0.0000
v  -8.5808 0.0000 2.3096
v  -8.5808 0.0000 -0.0000
v  -8.5808 1.8712 2.6645
v  -8.5808 3.8735 1.9355
v  -8.5808 4.8268 -0.0000
v  -8.5808 3.8735 -1.9355
v  -8.5808 1.8712 -2.6645
v  -8.5808 0.0000 -2.3096
v  -7.5273 0.0000 -4.4549
v  -2.7113 0.0000 0.6277
v  -8.2556 1.8712 -5.1108
v  -7.1570 3.8735 -4.0845
v  -1.3557 7.1168 -3.4618
v  -4.9341 6.6401 -1.7284
v  2.8703 4.5152 -4.4388
v  -0.4192 6.9610 -1.6914
v  4.2794 1.8712 -5.6759
v  3.2407 0.0000 -4.8091
v  -4.7707 0.0000 4.3634
v  -5.7525 1.8712 5.4212
v  -4.4003 3.8735 3.9930
v  -3.5558 6.6401 2.3103
v  -1.3598 7.1168 4.5596
v  -2.7113 7.9019 0.6277
v  0.7239 6.6401 3.2334
v  4.1591 3.8735 5.8390
v  5.6186 1.8712 7.3337
v  4.5294 0.0000 6.2094
v  -5.6460 7.1168 0.3138
v  8.4989 0.0000 5.4964
v  6.0634 0.0000 0.9233
v  5.6177 0.0000 -3.0709
v  8.4989 1.8712 6.1990
v  5.8811 1.8712 -3.7294
v  6.0634 3.8735 -2.9091
v  1.6761 7.1168 0.7755
v  6.0634 4.8268 0.9233
v  8.4989 3.8735 4.7557
# 80 vertices

vn 0.0000 1.0000 -0.0000
vn 0.5419 0.8221 0.1745
vn 0.4880 0.8174 0.3060
vn 0.9487 -0.0812 0.3055
vn 0.7828 -0.0664 0.6187
vn 0.6902 -0.6886 0.2223
vn 0.6183 -0.6758 0.4012
vn 0.0000 -1.0000 -0.0000
vn -0.0713 -0.9772 0.1999
vn -0.7444 -0.6677 0.0000
vn -0.7352 -0.6652 0.1306
vn -0.9967 -0.0808 0.0000
vn -0.9654 -0.0817 0.2477
vn -0.6378 0.7702 0.0000
vn -0.6048 0.7934 0.0693
vn 0.0045 0.7687 0.6395
vn -0.0669 0.7941 0.6042
vn 0.0071 -0.0807 0.9967
vn -0.1713 -0.0821 0.9818
vn 0.0053 -0.6669 0.7452
vn -0.1207 -0.6844 0.7190
vn 0.0000 -1.0000 0.0020
vn 0.0239 -0.9938 0.1090
vn -0.5187 -0.6532 -0.5516
vn -0.7977 -0.4730 -0.3741
vn -0.6835 -0.0671 -0.7269
vn -0.9062 -0.0332 -0.4216
vn -0.3377 0.8701 -0.3591
vn -0.5036 0.8119 -0.2954
vn -0.0012 0.5476 -0.8367
vn -0.4320 0.7256 -0.5356
vn -0.4033 -0.0492 -0.9137
vn -0.4619 -0.5201 -0.7184
vn -0.0570 -0.6887 -0.7228
vn 0.5144 -0.5448 -0.6622
vn 0.6031 -0.0670 -0.7949
vn 0.5001 0.7079 -0.4989
vn 0.8314 0.5556 -0.0000
vn 0.5004 0.7020 -0.5068
vn 0.7961 -0.0665 -0.6015
vn 0.6561 -0.5456 -0.5214
vn 0.7863 -0.6177 0.0159
vn 0.8101 -0.4546 0.3703
vn 0.9646 -0.0351 0.2613
vn 0.5786 0.7491 0.3226
vn 0.4494 0.8273 0.3372
vn 0.8413 -0.0707 0.5358
vn 0.5642 -0.6793 0.4693
vn -0.1039 -0.9444 0.3119
vn 0.3851 -0.8345 0.3941
vn -0.4997 -0.7814 0.3737
vn -0.3326 -0.9206 0.2044
vn -0.8363 0.0056 0.5482
vn -0.3039 0.9300 0.2067
vn 0.2600 0.9265 -0.2719
vn 0.7008 -0.0599 -0.7108
vn 0.5585 -0.6144 -0.5573
vn 0.5125 -0.6836 -0.5198
vn 0.1540 -0.8874 -0.4346
vn 0.1074 -0.9922 -0.0627
vn -0.3469 -0.8957 -0.2782
vn -0.3180 -0.7759 -0.5448
vn -0.3649 -0.0540 -0.9295
vn -0.1763 0.9343 -0.3099
vn 0.4883 -0.8593 -0.1520
vn -0.5661 0.6838 -0.4603
vn -0.2143 0.8571 0.4686
vn -0.7097 -0.1021 -0.6971
vn -0.6015 0.0484 0.7974
vn -0.3344 -0.7067 0.6235
vn -0.3635 -0.9310 0.0335
vn -0.2856 -0.9541 0.0904
vn -0.5873 -0.6919 -0.4200
# 73 vertex normals

vt 0.5000 0.0000 0.0000
vt 0.6250 0.0000 0.0000
vt 0.7500 0.5000 0.0000
vt 0.6250 0.5000 0.0000
vt 0.5000 0.5000 0.0000
vt 0.3750 0.5000 0.0000
vt 0.2500 0.5000 0.0000
vt 0.2500 0.0000 0.0000
vt 0.4844 0.3125 0.0000
vt 0.5625 0.5000 0.0000
vt 0.4375 0.5000 0.0000
# 11 texture coords

o cave_tile_start
g cave_tile_start
usemtl Cave_Ground
s off
f 1/1/1 2/2/2 3/2/3 4/1/1
usemtl Cave_Walls
f 2/2/2 5/3/4 6/3/5 3/2/3
f 5/3/4 7/4/6 8/4/7 6/3/5
f 7/4/6 9/5/8 10/5/9 8/4/7
f 9/5/8 11/6/10 12/6/11 10/5/9
f 11/6/10 13/7/12 14/7/13 12/6/11
f 13/7/12 15/8/14 16/8/15 14/7/13
usemtl Cave_Ground
f 15/8/14 1/1/1 4/1/1 16/8/15
f 17/1/1 18/2/16 19/2/17 20/1/1
usemtl Cave_Walls
f 18/2/16 21/3/18 22/3/19 19/2/17
f 21/3/18 23/4/20 24/4/21 22/3/19
f 23/4/20 25/5/22 26/5/23 24/4/21
f 25/5/22 27/6/24 28/6/25 26/5/23
f 27/6/24 29/7/26 30/7/27 28/6/25
f 29/7/26 31/8/28 32/8/29 30/7/27
usemtl Cave_Ground
f 31/8/28 17/1/1 20/1/1 32/8/29
f 33/9/30 34/2/31 35/1/1
usemtl Cave_Walls
f 33/9/30 36/3/32 34/2/31
f 33/9/30 37/4/33 36/3/32
f 33/9/30 38/5/34 37/4/33
f 33/9/30 39/6/35 38/5/34
f 33/9/30 40/7/36 39/6/35
f 33/9/30 41/8/37 40/7/36
usemtl Cave_Ground
f 33/9/30 35/1/1 41/8/37
f 42/9/38 43/2/39 44/1/1
usemtl Cave_Walls
f 42/9/38 45/3/40 43/2/39
f 42/9/38 46/4/41 45/3/40
f 42/9/38 47/5/42 46/4/41
f 42/9/38 48/6/43 47/5/42
f 42/9/38 49/7/44 48/6/43
f 42/9/38 50/8/45 49/7/44
usemtl Cave_Ground
f 42/9/38 44/1/1 50/8/45
f 4/1/1 3/2/3 51/2/46 52/1/1
usemtl Cave_Walls
f 3/2/3 6/3/5 53/3/47 51/2/46
f 6/3/5 8/4/7 54/4/48 53/3/47
f 8/4/7 10/5/9 55/5/49 56/10/50 54/4/48
f 10/5/9 12/6/11 57/6/51 58/11/52 55/5/49
f 12/6/11 14/7/13 59/7/53 57/6/51
f 14/7/13 16/8/15 60/8/54 59/7/53
usemtl Cave_Ground
f 16/8/15 4/1/1 52/1/1 60/8/54
f 52/1/1 61/2/55 41/2/37 35/1/1
usemtl Cave_Walls
f 61/2/55 62/3/56 40/3/36 41/2/37
f 62/3/56 63/4/57 39/4/35 40/3/36
f 63/4/57 64/10/58 65/5/59 38/5/34 39/4/35
f 66/5/60 67/11/61 65/5/59
f 68/6/62 69/7/63 36/7/32 37/6/33
f 69/7/63 70/8/64 34/8/31 36/7/32
usemtl Cave_Ground
f 70/8/64 52/1/1 35/1/1 34/8/31
f 44/1/1 43/2/39 61/2/55 52/1/1
f 50/8/45 44/1/1 52/1/1 51/8/46
usemtl Cave_Walls
f 43/2/39 45/3/40 62/3/56 61/2/55
f 49/7/44 50/8/45 51/8/46 53/7/47
f 48/6/43 49/7/44 53/7/47 54/6/48
f 47/5/42 48/6/43 54/6/48 56/11/50 71/5/65
f 46/4/41 47/5/42 71/5/65 64/10/58 63/4/57
f 45/3/40 46/4/41 63/4/57 62/3/56
usemtl Cave_Ground
f 52/1/1 70/2/64 72/2/66 73/1/1
f 60/8/54 52/1/1 73/1/1 74/8/67
usemtl Cave_Walls
f 70/2/64 69/3/63 75/3/68 72/2/66
f 59/7/53 60/8/54 74/8/67 76/7/69
f 57/6/51 59/7/53 76/7/69 77/6/70
f 66/5/60 58/11/52 78/5/71
f 68/4/62 67/10/61 78/5/71 79/5/72 80/4/73
f 69/3/63 68/4/62 80/4/73 75/3/68
usemtl Cave_Ground
f 73/1/1 72/2/66 32/2/29 20/1/1
f 74/8/67 73/1/1 20/1/1 19/8/17
usemtl Cave_Walls
f 72/2/66 75/3/68 30/3/27 32/2/29
f 76/7/69 74/8/67 19/8/17 22/7/19
f 77/6/70 76/7/69 22/7/19 24/6/21
f 79/5/72 77/6/70 24/6/21 26/5/23
f 80/4/73 79/5/72 26/5/23 28/4/25
f 75/3/68 80/4/73 28/4/25 30/3/27
f 55/5/49 66/5/60 56/10/50
f 58/11/52 66/5/60 55/5/49
f 64/10/58 66/5/60 65/5/59
f 67/11/61 68/6/62 37/6/33 38/5/34 65/5/59
f 56/11/50 66/5/60 71/5/65
f 71/5/65 66/5/60 64/10/58
f 58/11/52 57/6/51 77/6/70 79/5/72 78/5/71
f 67/10/61 66/5/60 78/5/71
# 56 polygons - 24 triangles

