solid OpenSCAD_Model
  facet normal -0 0 1
    outer loop
      vertex -0.1005 0.037 0.0105
      vertex 0.1005 -0.037 0.0105
      vertex 0.1005 0.037 0.0105
    endloop
  endfacet
  facet normal 0 0 1
    outer loop
      vertex 0.1005 -0.037 0.0105
      vertex -0.1005 0.037 0.0105
      vertex -0.1005 -0.037 0.0105
    endloop
  endfacet
  facet normal 0 0 -1
    outer loop
      vertex -0.1005 -0.037 -0.0105
      vertex 0.1005 0.037 -0.0105
      vertex 0.1005 -0.037 -0.0105
    endloop
  endfacet
  facet normal -0 0 -1
    outer loop
      vertex 0.1005 0.037 -0.0105
      vertex -0.1005 -0.037 -0.0105
      vertex -0.1005 0.037 -0.0105
    endloop
  endfacet
  facet normal 0 -1 0
    outer loop
      vertex -0.1005 -0.037 -0.0105
      vertex 0.1005 -0.037 0.0105
      vertex -0.1005 -0.037 0.0105
    endloop
  endfacet
  facet normal 0 -1 -0
    outer loop
      vertex 0.1005 -0.037 0.0105
      vertex -0.1005 -0.037 -0.0105
      vertex 0.1005 -0.037 -0.0105
    endloop
  endfacet
  facet normal 1 -0 0
    outer loop
      vertex 0.1005 -0.037 0.0105
      vertex 0.1005 0.037 -0.0105
      vertex 0.1005 0.037 0.0105
    endloop
  endfacet
  facet normal 1 0 0
    outer loop
      vertex 0.1005 0.037 -0.0105
      vertex 0.1005 -0.037 0.0105
      vertex 0.1005 -0.037 -0.0105
    endloop
  endfacet
  facet normal 0 1 -0
    outer loop
      vertex 0.1005 0.037 -0.0105
      vertex -0.1005 0.037 0.0105
      vertex 0.1005 0.037 0.0105
    endloop
  endfacet
  facet normal 0 1 0
    outer loop
      vertex -0.1005 0.037 0.0105
      vertex 0.1005 0.037 -0.0105
      vertex -0.1005 0.037 -0.0105
    endloop
  endfacet
  facet normal -1 0 0
    outer loop
      vertex -0.1005 -0.037 -0.0105
      vertex -0.1005 0.037 0.0105
      vertex -0.1005 0.037 -0.0105
    endloop
  endfacet
  facet normal -1 -0 0
    outer loop
      vertex -0.1005 0.037 0.0105
      vertex -0.1005 -0.037 -0.0105
      vertex -0.1005 -0.037 0.0105
    endloop
  endfacet
endsolid OpenSCAD_Model
