# 3ds Max Wavefront OBJ Exporter v0.97b - (c)2007 guruware
# File Created: 09.08.2018 09:30:13

mtllib cave_tile_2.mtl

#
# object cave_tile_2
#

v  -0.0000 0.0000 -10.0000
v  -2.3096 0.0000 -10.0000
v  -2.3096 0.0000 -8.4237
v  -0.0000 0.0000 -8.4237
v  -2.6645 1.8712 -10.0000
v  -2.6645 1.8712 -8.4237
v  -1.9355 3.8735 -10.0000
v  -1.9355 3.8735 -8.4237
v  -0.0000 4.8268 -10.0000
v  -0.0000 4.8268 -8.4237
v  1.9355 3.8735 -10.0000
v  1.9355 3.8735 -8.4237
v  2.6645 1.8712 -10.0000
v  2.6645 1.8712 -8.4237
v  2.3096 0.0000 -10.0000
v  2.3096 0.0000 -8.4237
v  -2.8592 0.0000 -5.7578
v  -0.9927 0.0000 -4.7149
v  -3.1833 1.8712 -5.8164
v  -2.5170 3.8735 -5.6958
v  -0.2716 4.8268 -5.1065
v  0.4346 3.8735 -4.0192
v  0.9840 1.8712 -4.0379
v  0.8774 0.0000 -4.0133
v  10.0000 0.0000 -0.0000
v  10.0000 0.0000 -2.3096
v  7.2661 0.0000 -2.3096
v  7.2661 0.0000 -0.0000
v  10.0000 1.8712 -2.6645
v  7.2661 1.8712 -2.6645
v  10.0000 3.8735 -1.9355
v  7.2661 3.8735 -1.9355
v  10.0000 4.8268 -0.0000
v  7.2661 4.8268 -0.0000
v  10.0000 3.8735 1.9355
v  7.2661 3.8735 1.9355
v  10.0000 1.8712 2.6645
v  7.2661 1.8712 2.6645
v  10.0000 0.0000 2.3096
v  7.2661 0.0000 2.3096
v  3.2847 0.0000 -1.1028
v  3.7867 0.0000 0.7056
v  3.2844 1.8712 -1.4456
v  3.2122 3.8735 -0.7031
v  3.6336 4.8268 0.5781
v  4.5701 3.8735 2.3226
v  4.6304 1.8712 3.0094
v  4.6011 0.0000 2.6751
v  -4.3850 0.0000 -3.5078
v  -4.7031 1.8712 -3.4846
v  -4.0489 3.8735 -3.5319
v  1.8439 3.8735 3.7738
v  3.3779 1.8712 4.2434
v  3.4089 0.0000 3.9028
v  -3.0621 0.0000 0.9038
v  -3.1675 3.8735 1.0382
v  -2.0753 4.8268 -2.0650
v  -3.1395 1.8712 1.0529
v  -0.5755 0.0000 2.3724
v  -0.6894 1.8712 2.4171
v  -0.6878 3.8735 2.4252
v  -0.5279 4.8268 2.5777
v  0.0000 0.0000 10.0000
v  2.3096 0.0000 10.0000
v  2.3096 0.0000 8.5808
v  0.0000 0.0000 8.5808
v  2.6645 1.8712 10.0000
v  2.6645 1.8712 8.5808
v  1.9355 3.8735 10.0000
v  1.9355 3.8735 8.5808
v  0.0000 4.8268 10.0000
v  0.0000 4.8268 8.5808
v  -1.9355 3.8735 10.0000
v  -1.9355 3.8735 8.5808
v  -2.6645 1.8712 10.0000
v  -2.6645 1.8712 8.5808
v  -2.3096 0.0000 10.0000
v  -2.3096 0.0000 8.5808
v  -10.0000 0.0000 0.0000
v  -10.0000 0.0000 2.3096
v  -8.5808 0.0000 2.3096
v  -8.5808 0.0000 -0.0000
v  -10.0000 1.8712 2.6645
v  -8.5808 1.8712 2.6645
v  -10.0000 3.8735 1.9355
v  -8.5808 3.8735 1.9355
v  -10.0000 4.8268 0.0000
v  -8.5808 4.8268 -0.0000
v  -10.0000 3.8735 -1.9355
v  -8.5808 3.8735 -1.9355
v  -10.0000 1.8712 -2.6645
v  -8.5808 1.8712 -2.6645
v  -10.0000 0.0000 -2.3096
v  -8.5808 0.0000 -2.3096
v  0.2240 4.8268 5.9168
v  -1.6321 3.8735 6.3456
v  -0.3031 4.8268 2.9727
v  0.3364 4.8268 6.1143
v  1.8897 3.8735 6.1773
v  2.7042 1.8712 6.6264
v  2.5422 0.0000 6.4561
v  -2.0709 0.0000 6.2837
v  -2.4277 1.8712 6.2895
v  -7.0364 0.0000 2.0950
v  -7.1925 1.8712 2.3249
v  -6.3722 0.0000 -2.4900
v  -6.5313 1.8712 -2.6559
v  -6.2042 3.8735 -2.3151
v  -5.4561 4.8268 -1.4677
v  -5.9962 4.8268 -0.1408
v  -6.8715 3.8735 1.8529
v  -3.3905 4.8268 -2.5713
# 112 vertices

vn 0.0000 1.0000 -0.0000
vn 0.6378 0.7702 -0.0000
vn 0.6093 0.7906 0.0614
vn 0.9967 -0.0808 -0.0000
vn 0.9917 -0.0818 0.0994
vn 0.7444 -0.6677 -0.0000
vn 0.7303 -0.6788 0.0776
vn 0.0000 -1.0000 -0.0000
vn -0.0115 -0.9999 -0.0009
vn -0.7444 -0.6677 0.0000
vn -0.7534 -0.6456 -0.1251
vn -0.9967 -0.0808 0.0000
vn -0.9813 -0.0775 -0.1762
vn -0.6378 0.7702 0.0000
vn -0.6650 0.7391 -0.1073
vn 0.5467 0.8057 0.2280
vn 0.9209 -0.0765 0.3823
vn 0.6472 -0.7072 0.2846
vn -0.2917 -0.9560 -0.0311
vn -0.7548 -0.5147 -0.4068
vn -0.8667 -0.0925 -0.4902
vn -0.6398 0.6848 -0.3488
vn 0.0000 0.7701 0.6379
vn 0.1002 0.7411 0.6639
vn 0.0000 -0.0808 0.9967
vn 0.1441 -0.0782 0.9865
vn 0.0000 -0.6677 0.7444
vn 0.1121 -0.6481 0.7533
vn 0.0035 -0.9997 0.0221
vn -0.0000 -0.6677 -0.7444
vn -0.0527 -0.6755 -0.7355
vn -0.0000 -0.0807 -0.9967
vn -0.0655 -0.0815 -0.9945
vn -0.0000 0.7702 -0.6378
vn -0.0419 0.7838 -0.6196
vn 0.3497 0.7180 0.6019
vn 0.4898 -0.0679 0.8692
vn 0.3927 -0.5662 0.7247
vn 0.0285 -0.9913 0.1286
vn -0.2192 -0.6805 -0.6992
vn -0.4550 -0.0751 -0.8873
vn -0.2427 0.8338 -0.4958
vn 0.4074 0.7992 0.4419
vn 0.6230 -0.0424 0.7811
vn 0.5359 -0.6098 0.5839
vn -0.4675 -0.8389 -0.2789
vn -0.8201 -0.3056 -0.4837
vn -0.5199 0.7862 -0.3342
vn -0.4287 0.6614 -0.6155
vn -0.4671 -0.4825 -0.7409
vn -0.3861 -0.8836 -0.2649
vn -0.5568 0.0148 -0.8305
vn 0.6076 0.6714 0.4243
vn 0.8208 0.0167 0.5709
vn 0.8371 -0.1106 0.5358
vn 0.6783 -0.6697 0.3024
vn -0.6235 0.7811 -0.0338
vn -0.9967 -0.0809 -0.0101
vn -0.7454 -0.6666 0.0071
vn 0.0155 -0.9999 -0.0046
vn 0.7502 -0.6593 0.0506
vn 0.9955 -0.0800 0.0509
vn 0.6492 0.7599 0.0338
vn -0.0455 0.7565 -0.6524
vn -0.0000 -0.0808 -0.9967
vn -0.1170 -0.0788 -0.9900
vn -0.0180 -0.6648 -0.7468
vn 0.0352 -0.9987 -0.0360
vn 0.0586 -0.6763 0.7343
vn -0.0021 -0.0807 0.9967
vn 0.0000 0.7702 0.6378
vn 0.0255 0.7783 0.6273
vn 0.2098 -0.9776 -0.0170
vn 0.7408 -0.6576 0.1370
vn -0.1113 -0.9927 -0.0470
vn -0.2986 -0.9543 0.0120
vn -0.7639 -0.6452 0.0146
vn -0.9780 -0.1579 -0.1364
vn -0.6262 0.7666 -0.1419
vn 0.6502 0.7431 0.1580
vn 0.9631 -0.0931 0.2527
vn -0.1500 0.7261 -0.6711
vn -0.2652 -0.0434 -0.9632
vn 0.1729 0.7875 0.5916
vn 0.1962 -0.0472 0.9794
vn 0.2751 -0.5106 0.8146
vn 0.3054 -0.8391 0.4502
vn 0.1574 -0.9393 0.3048
vn -0.0539 -0.9679 -0.2456
vn -0.1053 -0.5986 -0.7941
vn 0.1761 -0.9481 0.2646
# 91 vertex normals

vt 0.5000 0.0000 0.0000
vt 0.6250 0.0000 0.0000
vt 0.7500 0.5000 0.0000
vt 0.6250 0.5000 0.0000
vt 0.5000 0.5000 0.0000
vt 0.3750 0.5000 0.0000
vt 0.2500 0.5000 0.0000
vt 0.2500 0.0000 0.0000
vt 0.4583 0.0000 0.0000
# 9 texture coords

o cave_tile_2
g cave_tile_2
usemtl Cave_Ground
s off
f 1/1/1 2/2/2 3/2/3 4/1/1 
usemtl Cave_Walls
f 2/2/2 5/3/4 6/3/5 3/2/3 
f 5/3/4 7/4/6 8/4/7 6/3/5 
f 7/4/6 9/5/8 10/5/9 8/4/7 
f 9/5/8 11/6/10 12/6/11 10/5/9 
f 11/6/10 13/7/12 14/7/13 12/6/11 
f 13/7/12 15/8/14 16/8/15 14/7/13 
usemtl Cave_Ground
f 15/8/14 1/1/1 4/1/1 16/8/15 
f 4/1/1 3/2/3 17/2/16 18/1/1 
usemtl Cave_Walls
f 3/2/3 6/3/5 19/3/17 17/2/16 
f 6/3/5 8/4/7 20/4/18 19/3/17 
f 8/4/7 10/5/9 21/5/19 20/4/18 
f 10/5/9 12/6/11 22/6/20 21/5/19 
f 12/6/11 14/7/13 23/7/21 22/6/20 
f 14/7/13 16/8/15 24/8/22 23/7/21 
usemtl Cave_Ground
f 16/8/15 4/1/1 18/1/1 24/8/22 
f 25/1/1 26/2/23 27/2/24 28/1/1 
usemtl Cave_Walls
f 26/2/23 29/3/25 30/3/26 27/2/24 
f 29/3/25 31/4/27 32/4/28 30/3/26 
f 31/4/27 33/5/8 34/5/29 32/4/28 
f 33/5/8 35/6/30 36/6/31 34/5/29 
f 35/6/30 37/7/32 38/7/33 36/6/31 
f 37/7/32 39/8/34 40/8/35 38/7/33 
usemtl Cave_Ground
f 39/8/34 25/1/1 28/1/1 40/8/35 
f 28/1/1 27/2/24 41/2/36 42/1/1 
usemtl Cave_Walls
f 27/2/24 30/3/26 43/3/37 41/2/36 
f 30/3/26 32/4/28 44/4/38 43/3/37 
f 32/4/28 34/5/29 45/5/39 44/4/38 
f 34/5/29 36/6/31 46/6/40 45/5/39 
f 36/6/31 38/7/33 47/7/41 46/6/40 
f 38/7/33 40/8/35 48/8/42 47/7/41 
usemtl Cave_Ground
f 40/8/35 28/1/1 42/1/1 48/8/42 
f 17/2/16 49/2/43 18/1/1 
usemtl Cave_Walls
f 19/3/17 50/3/44 49/2/43 17/2/16 
f 20/4/18 51/4/45 50/3/44 19/3/17 
f 21/5/19 51/4/45 20/4/18 
f 46/6/40 52/6/46 45/5/39 
f 47/7/41 53/7/47 52/6/46 46/6/40 
f 48/8/42 54/8/48 53/7/47 47/7/41 
usemtl Cave_Ground
f 42/1/1 54/8/48 48/8/42 
f 49/2/43 55/9/49 18/1/1 
usemtl Cave_Walls
f 22/6/20 56/6/50 57/5/51 21/5/19 
f 23/7/21 58/7/52 56/6/50 22/6/20 
f 24/8/22 55/9/49 58/7/52 23/7/21 
usemtl Cave_Ground
f 18/1/1 55/9/49 24/8/22 
f 41/2/36 59/9/53 42/1/1 
usemtl Cave_Walls
f 43/3/37 60/3/54 59/9/53 41/2/36 
f 44/4/38 61/4/55 60/3/54 43/3/37 
f 45/5/39 62/5/56 61/4/55 44/4/38 
usemtl Cave_Ground
f 42/1/1 59/9/53 54/8/48 
f 63/1/1 64/2/14 65/2/57 66/1/1 
usemtl Cave_Walls
f 64/2/14 67/3/12 68/3/58 65/2/57 
f 67/3/12 69/4/10 70/4/59 68/3/58 
f 69/4/10 71/5/8 72/5/60 70/4/59 
f 71/5/8 73/6/6 74/6/61 72/5/60 
f 73/6/6 75/7/4 76/7/62 74/6/61 
f 75/7/4 77/8/2 78/8/63 76/7/62 
usemtl Cave_Ground
f 77/8/2 63/1/1 66/1/1 78/8/63 
f 79/1/1 80/2/34 81/2/64 82/1/1 
usemtl Cave_Walls
f 80/2/34 83/3/65 84/3/66 81/2/64 
f 83/3/65 85/4/30 86/4/67 84/3/66 
f 85/4/30 87/5/8 88/5/68 86/4/67 
f 87/5/8 89/6/27 90/6/69 88/5/68 
f 89/6/27 91/7/25 92/7/70 90/6/69 
f 91/7/25 93/8/71 94/8/72 92/7/70 
usemtl Cave_Ground
f 93/8/71 79/1/1 82/1/1 94/8/72 
usemtl Cave_Walls
f 61/6/55 62/5/56 95/5/73 96/6/74 
f 62/5/56 97/5/75 98/5/76 95/5/73 
f 52/6/46 99/6/77 98/5/76 97/5/75 
f 52/6/46 53/7/47 100/7/78 99/6/77 
f 53/7/47 54/8/48 101/8/79 100/7/78 
usemtl Cave_Ground
f 54/8/48 59/9/53 102/8/80 101/8/79 
usemtl Cave_Walls
f 59/9/53 60/7/54 103/7/81 102/8/80 
f 60/7/54 61/6/55 96/6/74 103/7/81 
f 62/5/56 45/5/39 97/5/75 
f 97/5/75 45/5/39 52/6/46 
f 95/5/73 72/5/60 74/6/61 96/6/74 
f 98/5/76 72/5/60 95/5/73 
f 99/6/77 70/6/59 72/5/60 98/5/76 
f 100/7/78 68/7/58 70/6/59 99/6/77 
f 101/8/79 65/8/57 68/7/58 100/7/78 
usemtl Cave_Ground
f 102/8/80 78/8/63 65/8/57 101/8/79 
usemtl Cave_Walls
f 103/7/81 76/7/62 78/8/63 102/8/80 
f 96/6/74 74/6/61 76/7/62 103/7/81 
f 58/3/52 55/9/49 104/2/82 105/3/83 
usemtl Cave_Ground
f 55/9/49 49/2/43 106/2/84 104/2/82 
usemtl Cave_Walls
f 49/2/43 50/3/44 107/3/85 106/2/84 
f 50/3/44 51/4/45 108/4/86 107/3/85 
f 51/4/45 51/4/87 109/5/88 108/4/86 
f 110/5/89 56/4/50 111/4/90 
f 56/4/50 58/3/52 105/3/83 111/4/90 
f 104/2/82 81/2/64 84/3/66 105/3/83 
usemtl Cave_Ground
f 106/2/84 94/2/72 81/2/64 104/2/82 
usemtl Cave_Walls
f 107/3/85 92/3/70 94/2/72 106/2/84 
f 108/4/86 90/4/69 92/3/70 107/3/85 
f 109/5/88 88/5/68 90/4/69 108/4/86 
f 110/5/89 88/5/68 109/5/88 
f 111/4/90 86/4/67 88/5/68 110/5/89 
f 105/3/83 84/3/66 86/4/67 111/4/90 
f 51/4/45 21/5/19 112/5/91 51/4/87 
f 112/5/91 21/5/19 57/5/51 
f 56/6/50 110/5/89 57/5/51 
f 57/5/51 110/5/89 109/5/88 112/5/91 
f 112/5/91 109/5/88 51/4/87 
# 88 polygons - 16 triangles

