<?xml version="1.0" encoding="UTF-8" standalone="no"?>
<!-- Generator: Adobe Illustrator 22.1.0, SVG Export Plug-In . SVG Version: 6.00 Build 0)  -->

<svg
   xmlns:dc="http://purl.org/dc/elements/1.1/"
   xmlns:cc="http://creativecommons.org/ns#"
   xmlns:rdf="http://www.w3.org/1999/02/22-rdf-syntax-ns#"
   xmlns:svg="http://www.w3.org/2000/svg"
   xmlns="http://www.w3.org/2000/svg"
   xmlns:sodipodi="http://sodipodi.sourceforge.net/DTD/sodipodi-0.dtd"
   xmlns:inkscape="http://www.inkscape.org/namespaces/inkscape"
   version="1.1"
   id="Layer_1"
   x="0px"
   y="0px"
   viewBox="0 0 600.00001 600"
   xml:space="preserve"
   sodipodi:docname="SubT_logo.svg"
   width="600"
   height="600"
   inkscape:version="0.92.3 (2405546, 2018-03-11)"><metadata
   id="metadata11574"><rdf:RDF><cc:Work
       rdf:about=""><dc:format>image/svg+xml</dc:format><dc:type
         rdf:resource="http://purl.org/dc/dcmitype/StillImage" /><dc:title></dc:title></cc:Work></rdf:RDF></metadata><defs
   id="defs11572" /><sodipodi:namedview
   pagecolor="#ffffff"
   bordercolor="#666666"
   borderopacity="1"
   objecttolerance="10"
   gridtolerance="10"
   guidetolerance="10"
   inkscape:pageopacity="0"
   inkscape:pageshadow="2"
   inkscape:window-width="2493"
   inkscape:window-height="1545"
   id="namedview11570"
   showgrid="false"
   showguides="true"
   inkscape:guide-bbox="true"
   inkscape:zoom="1.4478528"
   inkscape:cx="669.99639"
   inkscape:cy="196.71629"
   inkscape:window-x="67"
   inkscape:window-y="739"
   inkscape:window-maximized="1"
   inkscape:current-layer="Layer_1" />
<style
   type="text/css"
   id="style2">
	.st0{fill:url(#SVGID_1_);}
	.st1{fill:#554A25;}
	.st2{fill:#626364;}
	.st3{fill:#5E5F60;}
	.st4{fill:url(#SVGID_2_);}
	.st5{fill:#616364;}
	.st6{fill:url(#SVGID_3_);}
	.st7{fill:#616263;}
	.st8{fill:url(#SVGID_4_);}
	.st9{fill:url(#SVGID_5_);}
	.st10{fill:url(#SVGID_6_);}
	.st11{fill:url(#SVGID_7_);}
	.st12{fill:#FFFFFF;}
	.st13{fill:#A8AAAC;}
	.st14{fill:#B5B19F;}
	.st15{fill:url(#SVGID_8_);}
	.st16{fill:none;stroke:url(#SVGID_9_);stroke-width:0.5442;stroke-miterlimit:10;}
	.st17{fill:url(#SVGID_10_);}
	.st18{fill:none;stroke:url(#SVGID_11_);stroke-width:0.5442;stroke-miterlimit:10;}
	.st19{fill:url(#SVGID_12_);}
	.st20{fill:url(#SVGID_13_);}
	.st21{fill:url(#SVGID_14_);}
	.st22{fill:url(#SVGID_15_);}
	.st23{fill:url(#SVGID_16_);}
	.st24{fill:url(#SVGID_17_);}
	.st25{fill:url(#SVGID_18_);}
	.st26{fill:url(#SVGID_19_);}
	.st27{fill:none;stroke:url(#SVGID_20_);stroke-width:0.5442;stroke-miterlimit:10;}
	.st28{fill:url(#SVGID_21_);}
	.st29{fill:none;stroke:url(#SVGID_22_);stroke-width:0.5442;stroke-miterlimit:10;}
	.st30{fill:#756D4B;}
	.st31{fill:url(#SVGID_23_);}
	.st32{fill:#4D4D4D;}
	.st33{fill:url(#SVGID_24_);}
	.st34{fill:url(#SVGID_25_);}
	.st35{fill:url(#SVGID_26_);}
	.st36{fill:url(#SVGID_27_);}
	.st37{fill:url(#SVGID_28_);}
	.st38{fill:url(#SVGID_29_);}
	.st39{fill:#B3B3B3;}
	.st40{fill:url(#SVGID_30_);}
	.st41{fill:none;stroke:url(#SVGID_31_);stroke-width:0.5442;stroke-miterlimit:10;}
	.st42{fill:#333333;}
	.st43{fill:url(#SVGID_32_);}
	.st44{fill:none;stroke:url(#SVGID_33_);stroke-width:0.5442;stroke-miterlimit:10;}
	.st45{fill:url(#SVGID_34_);}
	.st46{fill:url(#SVGID_35_);}
	.st47{fill:url(#SVGID_36_);}
	.st48{fill:url(#SVGID_37_);}
	.st49{fill:url(#SVGID_38_);}
	.st50{fill:url(#SVGID_39_);}
	.st51{fill:url(#SVGID_40_);}
	.st52{fill:url(#SVGID_41_);}
	.st53{fill:none;stroke:url(#SVGID_42_);stroke-width:0.5442;stroke-miterlimit:10;}
	.st54{fill:url(#SVGID_43_);}
	.st55{fill:none;stroke:url(#SVGID_44_);stroke-width:0.5442;stroke-miterlimit:10;}
	.st56{fill:#FFFFFF;stroke:#000000;stroke-width:2;stroke-linejoin:round;stroke-miterlimit:10;}
	.st57{fill:#FFFFFF;stroke:#000000;stroke-width:2;stroke-miterlimit:10;}
	.st58{fill:#FFFFFF;stroke:#000000;stroke-width:1.8;stroke-linejoin:round;stroke-miterlimit:10;}
	.st59{stroke:#000000;stroke-width:2;stroke-linejoin:round;stroke-miterlimit:10;}
	.st60{fill:url(#SVGID_45_);}
	.st61{fill:none;stroke:#000000;stroke-width:2.5;stroke-linejoin:round;stroke-miterlimit:10;}
	.st62{fill:url(#SVGID_46_);}
	.st63{fill:#FFFFFF;stroke:#000000;stroke-width:2.5;stroke-linejoin:round;stroke-miterlimit:10;}
	.st64{fill:url(#SVGID_47_);}
	.st65{fill:url(#SVGID_48_);}
	.st66{fill:url(#SVGID_49_);}
	.st67{fill:url(#SVGID_50_);}
	.st68{fill:url(#SVGID_51_);}
	.st69{fill:url(#SVGID_52_);}
	.st70{fill:url(#SVGID_53_);}
	.st71{fill:url(#SVGID_54_);}
	.st72{fill:url(#SVGID_55_);}
	.st73{fill:url(#SVGID_56_);}
	.st74{fill:none;stroke:url(#SVGID_57_);stroke-width:0.4408;stroke-miterlimit:10;}
	.st75{fill:url(#SVGID_58_);}
	.st76{fill:none;stroke:url(#SVGID_59_);stroke-width:0.4408;stroke-miterlimit:10;}
	.st77{fill:#808080;}
	.st78{fill:url(#SVGID_60_);}
	.st79{fill:url(#SVGID_61_);}
	.st80{fill:url(#SVGID_62_);}
	.st81{fill:url(#SVGID_63_);}
	.st82{fill:url(#SVGID_64_);}
	.st83{fill:url(#SVGID_65_);}
	.st84{fill:url(#SVGID_66_);}
	.st85{fill:url(#SVGID_67_);}
	.st86{fill:none;stroke:url(#SVGID_68_);stroke-width:0.3967;stroke-miterlimit:10;}
	.st87{fill:url(#SVGID_69_);}
	.st88{fill:none;stroke:url(#SVGID_70_);stroke-width:0.3967;stroke-miterlimit:10;}
	.st89{fill:url(#SVGID_71_);}
	.st90{fill:url(#SVGID_72_);}
	.st91{fill:url(#SVGID_73_);}
	.st92{fill:url(#SVGID_74_);}
	.st93{fill:url(#SVGID_75_);}
	.st94{fill:url(#SVGID_76_);}
	.st95{fill:url(#SVGID_77_);}
	.st96{fill:url(#SVGID_78_);}
	.st97{fill:none;stroke:url(#SVGID_79_);stroke-width:0.3213;stroke-miterlimit:10;}
	.st98{fill:url(#SVGID_80_);}
	.st99{fill:none;stroke:url(#SVGID_81_);stroke-width:0.3213;stroke-miterlimit:10;}
	.st100{fill:url(#SVGID_82_);}
	.st101{fill:url(#SVGID_83_);}
	.st102{fill:url(#SVGID_84_);}
	.st103{fill:url(#SVGID_85_);}
	.st104{fill:url(#SVGID_86_);}
	.st105{fill:url(#SVGID_87_);}
	.st106{fill:url(#SVGID_88_);}
	.st107{fill:url(#SVGID_89_);}
	.st108{fill:none;stroke:url(#SVGID_90_);stroke-width:0.4408;stroke-miterlimit:10;}
	.st109{fill:url(#SVGID_91_);}
	.st110{fill:none;stroke:url(#SVGID_92_);stroke-width:0.4408;stroke-miterlimit:10;}
	.st111{fill:url(#SVGID_93_);}
	.st112{fill:url(#SVGID_94_);}
	.st113{fill:url(#SVGID_95_);}
	.st114{fill:url(#SVGID_96_);}
	.st115{fill:url(#SVGID_97_);}
	.st116{fill:url(#SVGID_98_);}
	.st117{fill:url(#SVGID_99_);}
	.st118{fill:url(#SVGID_100_);}
	.st119{fill:none;stroke:url(#SVGID_101_);stroke-width:0.3967;stroke-miterlimit:10;}
	.st120{fill:url(#SVGID_102_);}
	.st121{fill:none;stroke:url(#SVGID_103_);stroke-width:0.3967;stroke-miterlimit:10;}
	.st122{fill:url(#SVGID_104_);}
	.st123{fill:url(#SVGID_105_);}
	.st124{fill:url(#SVGID_106_);}
	.st125{fill:url(#SVGID_107_);}
	.st126{fill:url(#SVGID_108_);}
	.st127{fill:url(#SVGID_109_);}
	.st128{fill:url(#SVGID_110_);}
	.st129{fill:url(#SVGID_111_);}
	.st130{fill:none;stroke:url(#SVGID_112_);stroke-width:0.3213;stroke-miterlimit:10;}
	.st131{fill:url(#SVGID_113_);}
	.st132{fill:none;stroke:url(#SVGID_114_);stroke-width:0.3213;stroke-miterlimit:10;}
	.st133{fill:url(#SVGID_115_);}
	.st134{fill:url(#SVGID_116_);}
	.st135{fill:url(#SVGID_117_);}
	.st136{fill:url(#SVGID_118_);}
	.st137{fill:url(#SVGID_119_);}
	.st138{fill:url(#SVGID_120_);}
	.st139{fill:url(#SVGID_121_);}
	.st140{fill:url(#SVGID_122_);}
	.st141{fill:none;stroke:url(#SVGID_123_);stroke-width:0.3213;stroke-miterlimit:10;}
	.st142{fill:url(#SVGID_124_);}
	.st143{fill:none;stroke:url(#SVGID_125_);stroke-width:0.3213;stroke-miterlimit:10;}
	.st144{fill:url(#SVGID_126_);}
	.st145{fill:url(#SVGID_127_);}
	.st146{fill:url(#SVGID_128_);}
	.st147{fill:url(#SVGID_129_);}
	.st148{fill:url(#SVGID_130_);}
	.st149{fill:url(#SVGID_131_);}
	.st150{fill:url(#SVGID_132_);}
	.st151{fill:url(#SVGID_133_);}
	.st152{fill:none;stroke:url(#SVGID_134_);stroke-width:0.3967;stroke-miterlimit:10;}
	.st153{fill:url(#SVGID_135_);}
	.st154{fill:none;stroke:url(#SVGID_136_);stroke-width:0.3967;stroke-miterlimit:10;}
	.st155{fill:url(#SVGID_137_);}
	.st156{fill:url(#SVGID_138_);}
	.st157{fill:url(#SVGID_139_);}
	.st158{fill:url(#SVGID_140_);}
	.st159{fill:url(#SVGID_141_);}
	.st160{fill:url(#SVGID_142_);}
	.st161{fill:url(#SVGID_143_);}
	.st162{fill:url(#SVGID_144_);}
	.st163{fill:none;stroke:url(#SVGID_145_);stroke-width:0.4408;stroke-miterlimit:10;}
	.st164{fill:url(#SVGID_146_);}
	.st165{fill:none;stroke:url(#SVGID_147_);stroke-width:0.4408;stroke-miterlimit:10;}
	.st166{fill:url(#SVGID_148_);}
	.st167{fill:url(#SVGID_149_);}
	.st168{fill:url(#SVGID_150_);}
	.st169{fill:url(#SVGID_151_);}
	.st170{fill:url(#SVGID_152_);}
	.st171{fill:url(#SVGID_153_);}
	.st172{fill:url(#SVGID_154_);}
	.st173{fill:url(#SVGID_155_);}
	.st174{fill:none;stroke:url(#SVGID_156_);stroke-width:0.5442;stroke-miterlimit:10;}
	.st175{fill:url(#SVGID_157_);}
	.st176{fill:none;stroke:url(#SVGID_158_);stroke-width:0.5442;stroke-miterlimit:10;}
	.st177{fill:url(#SVGID_159_);}
	.st178{fill:url(#SVGID_160_);}
	.st179{fill:url(#SVGID_161_);}
	.st180{fill:url(#SVGID_162_);}
	.st181{fill:url(#SVGID_163_);}
	.st182{fill:url(#SVGID_164_);}
	.st183{fill:url(#SVGID_165_);}
	.st184{fill:url(#SVGID_166_);}
	.st185{fill:none;stroke:url(#SVGID_167_);stroke-width:0.5442;stroke-miterlimit:10;}
	.st186{fill:url(#SVGID_168_);}
	.st187{fill:none;stroke:url(#SVGID_169_);stroke-width:0.5442;stroke-miterlimit:10;}
</style>
<g
   id="g165"
   transform="matrix(2.2513386,0,0,2.2513386,-181.89251,-18.120061)">
	<linearGradient
   id="SVGID_1_"
   gradientUnits="userSpaceOnUse"
   x1="247.06619"
   y1="33.615898"
   x2="197.0114"
   y2="131.8539">
		<stop
   offset="0"
   style="stop-color:#B5B19F"
   id="stop4" />
		<stop
   offset="0.15"
   style="stop-color:#756D4B"
   id="stop6" />
	</linearGradient>
	<polygon
   class="st0"
   points="215,139.6 216.2,19.8 231,25.4 227.1,147.2 "
   id="polygon9"
   style="fill:url(#SVGID_1_)" />
	<polygon
   class="st1"
   points="188.7,154.2 183.9,30.5 216.2,19.8 215,139.6 "
   id="polygon11"
   style="fill:#554a25" />
	<polygon
   class="st2"
   points="227.1,147.2 231,25.4 247.1,31.5 240.1,155.3 "
   id="polygon13"
   style="fill:#626364" />
	<polygon
   class="st3"
   points="174.5,162.1 166.1,36.5 183.9,30.5 188.7,154.2 "
   id="polygon15"
   style="fill:#5e5f60" />
	<polygon
   class="st3"
   points="227.3,163.2 231.5,37.4 247.1,31.5 240.1,155.3 "
   id="polygon17"
   style="fill:#5e5f60" />
	<polygon
   class="st2"
   points="240.1,155.3 247.1,31.5 264.2,38 253.7,163.9 "
   id="polygon19"
   style="fill:#626364" />
	<linearGradient
   id="SVGID_2_"
   gradientUnits="userSpaceOnUse"
   x1="201.63271"
   y1="53.869099"
   x2="151.1364"
   y2="152.9735">
		<stop
   offset="0"
   style="stop-color:#B5B19F"
   id="stop21" />
		<stop
   offset="0.15"
   style="stop-color:#756D4B"
   id="stop23" />
	</linearGradient>
	<polygon
   class="st4"
   points="174.5,162.1 166.1,36.5 180.7,43.2 186.4,170.9 "
   id="polygon26"
   style="fill:url(#SVGID_2_)" />
	<polygon
   class="st3"
   points="186.4,170.9 180.7,43.2 198.6,36.9 200.7,162.6 "
   id="polygon28"
   style="fill:#5e5f60" />
	<polygon
   class="st3"
   points="241,172.2 248.7,44.3 264.2,38 253.7,163.9 "
   id="polygon30"
   style="fill:#5e5f60" />
	<polygon
   class="st2"
   points="253.7,163.9 264.2,38 282.6,45 268.1,173 "
   id="polygon32"
   style="fill:#626364" />
	<polygon
   class="st2"
   points="186.4,170.9 180.7,43.2 196.6,50.5 199.2,180.4 "
   id="polygon34"
   style="fill:#626364" />
	<polygon
   class="st3"
   points="255.4,181.7 267,51.7 282.6,45 268.1,173 "
   id="polygon36"
   style="fill:#5e5f60" />
	<polygon
   class="st2"
   points="268.1,173 282.6,45 302.2,52.4 283.4,182.5 "
   id="polygon38"
   style="fill:#626364" />
	<polygon
   class="st1"
   points="126.4,185.4 105.2,56.7 166.1,36.5 174.5,162.1 "
   id="polygon40"
   style="fill:#554a25" />
	<polygon
   class="st1"
   points="196.6,50.5 177.3,57.8 184,189.7 199.2,180.4 213.6,171.6 214.6,43.7 "
   id="polygon42"
   style="fill:#554a25" />
	<polygon
   class="st5"
   points="171.3,179.8 161.5,49.9 177.3,57.8 184,189.7 "
   id="polygon44"
   style="fill:#616364" />
	<linearGradient
   id="SVGID_3_"
   gradientUnits="userSpaceOnUse"
   x1="272.9884"
   y1="52.602699"
   x2="216.1935"
   y2="164.06911">
		<stop
   offset="0"
   style="stop-color:#B5B19F"
   id="stop46" />
		<stop
   offset="0.21"
   style="stop-color:#756D4B"
   id="stop48" />
	</linearGradient>
	<polygon
   class="st6"
   points="267,51.7 248.7,44.3 231.5,37.4 215.4,30.9 214.4,154.6 227.3,163.2 241,172.2 255.4,181.7 270.6,191.8 286.8,59.6 "
   id="polygon51"
   style="fill:url(#SVGID_3_)" />
	<polygon
   class="st3"
   points="270.6,191.8 286.8,59.6 302.2,52.4 283.4,182.5 "
   id="polygon53"
   style="fill:#5e5f60" />
	<polygon
   class="st2"
   points="283.4,182.5 302.2,52.4 323.3,60.4 300.3,188 "
   id="polygon55"
   style="fill:#626364" />
	<polygon
   class="st7"
   points="155.4,189.1 141.1,57.2 156.6,65.5 168,199.6 "
   id="polygon57"
   style="fill:#616263" />
	<polygon
   class="st3"
   points="168,199.6 156.6,65.5 177.3,57.8 184,189.7 "
   id="polygon59"
   style="fill:#5e5f60" />
	<polygon
   class="st3"
   points="227.2,201.1 232,66.9 250.1,59 241.7,191.1 "
   id="polygon61"
   style="fill:#5e5f60" />
	<polygon
   class="st3"
   points="287.6,198 308,68.2 323.3,60.4 300.2,188.4 "
   id="polygon63"
   style="fill:#5e5f60" />
	<polygon
   class="st7"
   points="138.2,196.4 119.1,64.9 134.4,73.9 151.2,208.4 "
   id="polygon65"
   style="fill:#616263" />
	<polygon
   class="st1"
   points="150.9,209 134.4,73.9 156.6,65.5 168,199.6 "
   id="polygon67"
   style="fill:#554a25" />
	<polygon
   class="st3"
   points="181.4,210.8 173.4,74.6 194.2,66.2 197.6,200.3 "
   id="polygon69"
   style="fill:#5e5f60" />
	<polygon
   class="st3"
   points="242.5,212.3 251.9,76 270,67.5 257,201.8 "
   id="polygon71"
   style="fill:#5e5f60" />
	<linearGradient
   id="SVGID_4_"
   gradientUnits="userSpaceOnUse"
   x1="256.99261"
   y1="78.622597"
   x2="199.9227"
   y2="190.6286">
		<stop
   offset="0"
   style="stop-color:#B5B19F"
   id="stop73" />
		<stop
   offset="0.21"
   style="stop-color:#756D4B"
   id="stop75" />
	</linearGradient>
	<polygon
   class="st8"
   points="232,66.9 213.6,58.4 212.8,190.4 227.2,201.1 242.5,212.3 251.9,76 "
   id="polygon78"
   style="fill:url(#SVGID_4_)" />
	<polygon
   class="st2"
   points="257,201.8 270,67.5 291.4,76.7 273.4,208.8 "
   id="polygon80"
   style="fill:#626364" />
	<linearGradient
   id="SVGID_5_"
   gradientUnits="userSpaceOnUse"
   x1="332.5235"
   y1="78.237999"
   x2="274.99991"
   y2="191.1344">
		<stop
   offset="0"
   style="stop-color:#B5B19F"
   id="stop82" />
		<stop
   offset="0.1693"
   style="stop-color:#756D4B"
   id="stop84" />
	</linearGradient>
	<polygon
   class="st9"
   points="287.6,197.6 308,68.2 330.6,77.3 310.4,179.7 "
   id="polygon87"
   style="fill:url(#SVGID_5_)" />
	<linearGradient
   id="SVGID_6_"
   gradientUnits="userSpaceOnUse"
   x1="203.8985"
   y1="89.648201"
   x2="148.3764"
   y2="198.6165">
		<stop
   offset="0"
   style="stop-color:#B5B19F"
   id="stop89" />
		<stop
   offset="0.21"
   style="stop-color:#756D4B"
   id="stop91" />
	</linearGradient>
	<polygon
   class="st10"
   points="191.5,84.4 173.4,74.6 156.6,65.5 168,199.6 181.4,210.8 195.7,222.7 "
   id="polygon94"
   style="fill:url(#SVGID_6_)" />
	<polygon
   class="st1"
   points="195.7,222.7 191.5,84.4 212.5,75.3 211.9,211.6 "
   id="polygon96"
   style="fill:#554a25" />
	<polygon
   class="st1"
   points="185,235.1 185,131.1 209.7,118.4 209.1,254.7 "
   id="polygon98"
   style="fill:#554a25" />
	<polygon
   class="st2"
   points="242.5,212.3 251.9,76 273.4,85.9 259.2,220.1 "
   id="polygon100"
   style="fill:#626364" />
	<polygon
   class="st5"
   points="227.2,223.5 232.3,85.2 253.9,95.9 243.6,233.1 "
   id="polygon102"
   style="fill:#616364" />
	<polygon
   class="st1"
   points="287.6,198 308,68.2 291.4,76.7 273.4,85.9 253.9,95.9 243.5,232.7 255.8,222.7 271.5,210.2 "
   id="polygon104"
   style="fill:#554a25" />
	<polygon
   class="st3"
   points="227.3,245.8 232.7,106.7 253.9,95.9 243.6,233.1 "
   id="polygon106"
   style="fill:#5e5f60" />
	<linearGradient
   id="SVGID_7_"
   gradientUnits="userSpaceOnUse"
   x1="252.71741"
   y1="116.1992"
   x2="193.97501"
   y2="231.4875">
		<stop
   offset="0"
   style="stop-color:#B5B19F"
   id="stop108" />
		<stop
   offset="0.25"
   style="stop-color:#756D4B"
   id="stop110" />
	</linearGradient>
	<polygon
   class="st11"
   points="232.7,106.7 211.2,95.1 210.9,235.4 225.3,247.4 246.9,230.2 255.8,119.2 "
   id="polygon113"
   style="fill:url(#SVGID_7_)" />
	<g
   id="g119">
		<polygon
   class="st12"
   points="282.6,45 264.2,38 247.1,31.5 231,25.4 215.4,30.9 231.5,37.4 248.7,44.3 267,51.7 286.8,59.6 270,67.5 250.1,59 231.7,51.1 213.6,58.4 232,66.9 251.9,76 232.3,85.2 211.2,95.1 232.7,106.7 255.8,119.2 276.9,107.3 253.9,95.9 273.4,85.9 291.4,76.7 308,68.2 330.6,77.3 345.6,68.8 323.3,60.4 302.2,52.4 "
   id="polygon115"
   style="fill:#ffffff" />
		<polygon
   class="st12"
   points="134.4,73.9 156.6,65.5 173.4,74.6 191.5,84.4 212.5,75.3 194.2,66.2 177.3,57.8 196.6,50.5 214.6,43.7 198.6,36.9 183.9,30.5 166.1,36.5 180.7,43.2 161.5,49.9 141.1,57.2 119.1,64.9 105.2,56.7 82.4,64.3 95.9,73.1 110.8,82.8 127,93.3 144.6,104.8 163.8,117.3 185,131.1 209.7,118.4 188.3,105.8 168.8,94.3 150.9,83.7 "
   id="polygon117"
   style="fill:#ffffff" />
	</g>
	<path
   class="st13"
   d="M 81.2,64.2 216.2,19.4 346.9,68.8 207.8,147 Z M 231,25.4 216.1,19.8 183.8,30.5 166,36.4 105.1,56.6 82.3,64.2 95.8,73 l 14.9,9.7 16.3,10.6 17.6,11.5 19.3,12.5 21.2,13.8 22.9,14.9 47.9,-26.9 21.1,-11.8 53.7,-30.1 15,-8.4 -22.3,-8.5 -21.1,-8 L 282.6,45 264.2,38 247.1,31.5 231,25.4"
   id="path121"
   inkscape:connector-curvature="0"
   style="fill:#a8aaac" />
	<g
   id="g139">
		<polygon
   class="st14"
   points="103.2,165.5 81.2,64.2 207.8,147.1 208.4,261.5 "
   id="polygon123"
   style="fill:#b5b19f" />
		<linearGradient
   id="SVGID_8_"
   gradientUnits="userSpaceOnUse"
   x1="170.9568"
   y1="122.5429"
   x2="118.5696"
   y2="203.2121">
			<stop
   offset="0"
   style="stop-color:#FFFFFF;stop-opacity:0"
   id="stop125" />
			<stop
   offset="1"
   style="stop-color:#FFFFFF;stop-opacity:0.9"
   id="stop127" />
		</linearGradient>
		<polygon
   class="st15"
   points="103.2,165.5 81.2,64.2 207.8,147.1 208.4,261.5 "
   id="polygon130"
   style="fill:url(#SVGID_8_)" />
		<linearGradient
   id="SVGID_9_"
   gradientUnits="userSpaceOnUse"
   x1="144.6971"
   y1="63.644699"
   x2="144.6971"
   y2="262.13861">
			<stop
   offset="0"
   style="stop-color:#FFFFFF;stop-opacity:0"
   id="stop132" />
			<stop
   offset="0.906"
   style="stop-color:#FFFFFF"
   id="stop134" />
		</linearGradient>
		<polygon
   class="st16"
   points="103.2,165.5 81.2,64.2 207.8,147.1 208.4,261.5 "
   id="polygon137"
   style="fill:none;stroke:url(#SVGID_9_);stroke-width:0.5442;stroke-miterlimit:10" />
	</g>
	<g
   id="g157">
		<polygon
   class="st1"
   points="208.4,261.5 207.8,147.1 346.9,68.9 323.8,170.6 "
   id="polygon141"
   style="fill:#554a25" />
		<linearGradient
   id="SVGID_10_"
   gradientUnits="userSpaceOnUse"
   x1="301.08621"
   y1="201.2984"
   x2="248.64819"
   y2="120.551">
			<stop
   offset="8.071750e-02"
   style="stop-color:#FFFFFF;stop-opacity:0.9"
   id="stop143" />
			<stop
   offset="1"
   style="stop-color:#FFFFFF;stop-opacity:0.25"
   id="stop145" />
		</linearGradient>
		<polygon
   class="st17"
   points="208.4,261.5 207.8,147.1 346.9,68.9 323.8,170.6 "
   id="polygon148"
   style="fill:url(#SVGID_10_)" />
		<linearGradient
   id="SVGID_11_"
   gradientUnits="userSpaceOnUse"
   x1="277.44601"
   y1="68.325203"
   x2="277.44601"
   y2="262.07779">
			<stop
   offset="0"
   style="stop-color:#FFFFFF;stop-opacity:0"
   id="stop150" />
			<stop
   offset="0.906"
   style="stop-color:#FFFFFF"
   id="stop152" />
		</linearGradient>
		<polygon
   class="st18"
   points="208.4,261.5 207.8,147.1 346.9,68.9 323.8,170.6 "
   id="polygon155"
   style="fill:none;stroke:url(#SVGID_11_);stroke-width:0.5442;stroke-miterlimit:10" />
	</g>
	<polygon
   class="st12"
   points="207.9,146 207.8,147.1 81.7,64.6 "
   id="polygon159"
   style="fill:#ffffff" />
	<polygon
   class="st12"
   points="346.5,69.1 207.8,147.1 207.4,146.2 "
   id="polygon161"
   style="fill:#ffffff" />
	<polygon
   class="st12"
   points="208.5,146.4 207.9,168.9 207.4,146.4 "
   id="polygon163"
   style="fill:#ffffff" />
</g>


































































































































</svg>