# 3ds Max Wavefront OBJ Exporter v0.97b - (c)2007 guruware
# File Created: 26.05.2018 10:07:59

mtllib Entrance.mtl

#
# object Entrance
#

v  -274.6199 0.0000 31.5156
v  -280.0000 -0.0000 86.1409
v  -280.0000 -67.7092 86.1409
v  -274.6199 -67.7092 31.5156
v  -274.6200 -0.0000 140.7658
v  -274.6200 -67.7092 140.7658
v  -258.6864 -0.0000 193.2919
v  -258.6864 -67.7092 193.2919
v  -232.8117 -0.0000 241.7003
v  -232.8117 -67.7092 241.7003
v  -197.9901 -0.0000 284.1305
v  -197.9901 -67.7092 284.1305
v  -155.5600 -0.0000 318.9522
v  -155.5600 -67.7092 318.9522
v  -107.1516 -0.0000 344.8271
v  -107.1516 -67.7092 344.8271
v  -54.6256 -0.0000 360.7607
v  -54.6256 -67.7092 360.7607
v  0.0000 -0.0000 366.1409
v  0.0000 -67.7092 366.1409
v  -259.2807 -0.0000 8.8007
v  -259.2807 -67.7092 8.8007
v  -248.3663 0.0000 -0.0000
v  -248.3663 -67.7092 -0.0000
v  0.0000 0.0000 -0.0000
v  0.0000 -67.7092 -0.0000
v  -401.5112 -67.7092 471.3283
v  0.0000 -67.7093 471.3283
v  -294.9934 -67.7092 -0.0000
v  -416.5870 -96.7947 -0.0000
v  -401.5112 -67.7092 65.8917
v  -401.5112 -27.4477 84.8314
v  -440.2706 -53.0121 0.0000
v  0.0000 -27.4478 471.3283
v  -401.5112 -27.4478 471.3283
v  -715.1815 154.7512 107.3449
v  -778.2913 154.7512 0.0000
v  -283.9608 154.7512 681.4650
v  -574.9475 154.7512 568.1721
v  0.0000 154.7511 691.5258
v  -698.4998 154.7512 284.7292
v  -248.3663 -200.1098 -0.0000
v  0.0000 -212.5416 -0.0000
v  -316.8828 -103.2340 -0.0000
v  -318.0478 -67.7092 16.8306
v  -366.9765 -83.4191 8.3879
v  -334.6735 -92.5509 5.7379
v  -336.3303 -158.9806 -0.0000
v  274.6199 0.0000 31.5156
v  274.6199 -67.7092 31.5156
v  280.0000 -67.7092 86.1409
v  280.0000 -0.0000 86.1409
v  274.6200 -67.7092 140.7658
v  274.6200 -0.0000 140.7658
v  258.6864 -67.7092 193.2919
v  258.6864 -0.0000 193.2919
v  232.8117 -67.7092 241.7003
v  232.8117 -0.0000 241.7003
v  197.9901 -67.7092 284.1305
v  197.9901 -0.0000 284.1305
v  155.5600 -67.7092 318.9522
v  155.5600 -0.0000 318.9522
v  107.1516 -67.7092 344.8271
v  107.1516 -0.0000 344.8271
v  54.6256 -67.7092 360.7607
v  54.6256 -0.0000 360.7607
v  259.2807 -0.0000 8.8007
v  259.2807 -67.7092 8.8007
v  248.3663 0.0000 -0.0000
v  248.3663 -67.7092 -0.0000
v  401.5112 -67.7092 471.3283
v  294.9934 -67.7092 -0.0000
v  416.5870 -96.7947 -0.0000
v  440.2706 -53.0121 0.0000
v  401.5112 -27.4477 84.8314
v  401.5112 -67.7092 65.8917
v  401.5112 -27.4478 471.3283
v  778.2913 154.7512 0.0000
v  715.1815 154.7512 107.3449
v  574.9475 154.7512 568.1721
v  283.9608 154.7512 681.4650
v  698.4998 154.7512 284.7292
v  248.3663 -200.1098 -0.0000
v  316.8828 -103.2340 -0.0000
v  318.0478 -67.7092 16.8306
v  366.9765 -83.4191 8.3879
v  334.6735 -92.5509 5.7379
v  336.3303 -158.9806 -0.0000
# 88 vertices

vn 0.9407 -0.0000 0.3392
vn 1.0000 0.0000 0.0000
vn 1.0000 -0.0000 0.0000
vn 0.9407 0.0000 0.3392
vn 0.9808 0.0000 -0.1951
vn 0.9239 0.0000 -0.3827
vn 0.8315 0.0000 -0.5556
vn 0.7071 0.0000 -0.7071
vn 0.5556 0.0000 -0.8315
vn 0.3827 0.0000 -0.9239
vn 0.1951 0.0000 -0.9808
vn 0.0000 0.0000 -1.0000
vn 0.7364 0.0000 0.6766
vn 0.3328 -0.0000 0.9430
vn 0.1639 -0.0000 0.9865
vn 0.0000 -0.0000 1.0000
vn -0.0000 -1.0000 -0.0000
vn 0.0000 -1.0000 0.0000
vn 0.0000 -1.0000 -0.0000
vn -0.3665 -0.6091 0.7033
vn -0.7358 -0.5373 0.4122
vn -0.6234 -0.7355 0.2653
vn -0.6303 -0.6153 0.4734
vn 0.0000 0.0000 1.0000
vn -0.4850 -0.8567 0.1756
vn -0.4695 -0.8269 0.3096
vn -0.3636 -0.8088 0.4622
vn -0.0939 -0.7318 0.6750
vn -0.4971 -0.7259 0.4754
vn -0.0000 -0.7631 0.6462
vn -0.0000 -0.7705 0.6375
vn -0.5439 -0.8344 0.0892
vn 0.1433 -0.1606 0.9766
vn 0.1307 -0.0610 0.9895
vn -1.0000 0.0000 -0.0000
vn 0.3238 -0.6621 0.6758
vn 0.0859 -0.6210 0.7791
vn 0.1375 -0.2411 0.9607
vn 0.0138 -0.0512 0.9986
vn -0.0000 -1.0000 0.0000
vn -0.9407 -0.0000 0.3392
vn -0.9407 0.0000 0.3392
vn -1.0000 -0.0000 0.0000
vn -1.0000 0.0000 0.0000
vn -0.9808 0.0000 -0.1951
vn -0.9239 0.0000 -0.3827
vn -0.8315 0.0000 -0.5556
vn -0.7071 0.0000 -0.7071
vn -0.5556 0.0000 -0.8315
vn -0.3827 0.0000 -0.9239
vn -0.1951 0.0000 -0.9808
vn -0.7364 0.0000 0.6766
vn -0.3328 -0.0000 0.9430
vn -0.1639 -0.0000 0.9865
vn 0.3665 -0.6091 0.7033
vn 0.6303 -0.6153 0.4734
vn 0.6234 -0.7355 0.2653
vn 0.7358 -0.5373 0.4122
vn 0.4695 -0.8269 0.3096
vn 0.4850 -0.8567 0.1756
vn 0.3636 -0.8088 0.4622
vn 0.4971 -0.7259 0.4754
vn 0.0939 -0.7318 0.6750
vn 0.5439 -0.8344 0.0892
vn -0.0000 0.0000 1.0000
vn -0.1307 -0.0610 0.9895
vn -0.1433 -0.1606 0.9766
vn 1.0000 0.0000 -0.0000
vn -0.3238 -0.6621 0.6758
vn -0.0859 -0.6210 0.7791
vn -0.1375 -0.2411 0.9607
vn -0.0138 -0.0512 0.9986
# 72 vertex normals

vt 0.7743 0.9370 0.0000
vt 0.7159 0.9370 0.0000
vt 0.7159 0.8650 0.0000
vt 0.7743 0.8650 0.0000
vt 0.6574 0.9370 0.0000
vt 0.6575 0.8650 0.0000
vt 0.5990 0.9370 0.0000
vt 0.5990 0.8650 0.0000
vt 0.5406 0.9370 0.0000
vt 0.5406 0.8650 0.0000
vt 0.6915 0.2769 0.0000
vt 0.7430 0.2493 0.0000
vt 0.0028 0.9137 0.0000
vt 0.0028 0.6493 0.0000
vt 0.4485 0.9557 0.0000
vt 0.4432 0.0547 0.0000
vt 0.8759 0.9557 0.0000
vt 0.4436 0.1328 0.0000
vt 0.4118 0.1680 0.0000
vt 0.3918 0.0671 0.0000
vt 0.0637 0.2138 0.0000
vt 0.0028 0.0637 0.0000
vt 0.5425 0.5463 0.0000
vt 0.0749 0.6493 0.0000
vt 0.4822 0.9370 0.0000
vt 0.0749 0.9137 0.0000
vt 0.4822 0.8650 0.0000
vt 0.4238 0.9370 0.0000
vt 0.4238 0.8650 0.0000
vt 0.3653 0.9370 0.0000
vt 0.3653 0.8650 0.0000
vt 0.3069 0.9370 0.0000
vt 0.3069 0.8650 0.0000
vt 0.2485 0.9370 0.0000
vt 0.2485 0.8650 0.0000
vt 0.8035 0.9370 0.0000
vt 0.8035 0.8650 0.0000
vt 0.6675 0.8423 0.0000
vt 0.3466 0.7559 0.0000
vt 0.2158 0.6493 0.0000
vt 0.2290 0.9137 0.0000
vt 0.9698 0.5464 0.0000
vt 0.0749 0.5997 0.0000
vt 0.9698 0.8506 0.0000
vt 0.1114 0.4396 0.0000
vt 0.5423 0.1051 0.0000
vt 0.4935 0.0787 0.0000
vt 0.5297 0.0737 0.0000
vt 0.5380 0.0031 0.0000
vt 0.5715 0.1011 0.0000
vt 0.5502 0.0637 0.0000
vt 0.8184 0.9370 0.0000
vt 0.8184 0.8650 0.0000
vt 0.1127 0.5764 0.0000
vt 0.1720 0.5557 0.0000
vt 0.8759 0.9986 0.0000
vt 0.4485 0.9986 0.0000
vt 0.9874 0.4289 0.0000
vt 0.7882 0.2123 0.0000
vt 0.8253 0.1671 0.0000
vt 0.8528 0.1156 0.0000
vt 0.9874 0.0015 0.0000
vt 0.8698 0.0597 0.0000
vt 0.8755 0.0015 0.0000
vt 0.4858 0.2659 0.0000
vt 0.4951 0.2775 0.0000
vt 0.4858 0.3155 0.0000
vt 0.5193 0.2938 0.0000
vt 0.5775 0.2995 0.0000
vt 0.5037 0.3400 0.0000
vt 0.6356 0.2938 0.0000
vt 0.5559 0.4289 0.0000
vt 0.0170 0.9557 0.0000
vt 0.0371 0.9986 0.0000
vt 0.7743 0.9370 0.0000
vt 0.7159 0.9370 0.0000
vt 0.7159 0.8650 0.0000
vt 0.7743 0.8650 0.0000
vt 0.6574 0.9370 0.0000
vt 0.6575 0.8650 0.0000
vt 0.5990 0.9370 0.0000
vt 0.5990 0.8650 0.0000
vt 0.5406 0.9370 0.0000
vt 0.5406 0.8650 0.0000
vt 0.4822 0.9370 0.0000
vt 0.4822 0.8650 0.0000
vt 0.4238 0.9370 0.0000
vt 0.4238 0.8650 0.0000
vt 0.3653 0.9370 0.0000
vt 0.3653 0.8650 0.0000
vt 0.3069 0.9370 0.0000
vt 0.3069 0.8650 0.0000
vt 0.2485 0.9370 0.0000
vt 0.2485 0.8650 0.0000
vt 0.8035 0.9370 0.0000
vt 0.8035 0.8650 0.0000
vt 0.8184 0.9370 0.0000
vt 0.8184 0.8650 0.0000
vt 0.0028 0.9137 0.0000
vt 0.0028 0.6493 0.0000
vt 0.0749 0.6493 0.0000
vt 0.0749 0.9137 0.0000
vt 0.6915 0.2769 0.0000
vt 0.7430 0.2493 0.0000
vt 0.9874 0.4289 0.0000
vt 0.7882 0.2123 0.0000
vt 0.8253 0.1671 0.0000
vt 0.8528 0.1156 0.0000
vt 0.9874 0.0015 0.0000
vt 0.8698 0.0597 0.0000
vt 0.8755 0.0015 0.0000
vt 0.4858 0.2659 0.0000
vt 0.4951 0.2775 0.0000
vt 0.4858 0.3155 0.0000
vt 0.4432 0.0547 0.0000
vt 0.4436 0.1328 0.0000
vt 0.4118 0.1680 0.0000
vt 0.3918 0.0671 0.0000
vt 0.4485 0.9557 0.0000
vt 0.8759 0.9557 0.0000
vt 0.8759 0.9986 0.0000
vt 0.4485 0.9986 0.0000
vt 0.0637 0.2138 0.0000
vt 0.0028 0.0637 0.0000
vt 0.5425 0.5463 0.0000
vt 0.6675 0.8423 0.0000
vt 0.3466 0.7559 0.0000
vt 0.9698 0.5464 0.0000
vt 0.9698 0.8506 0.0000
vt 0.1114 0.4396 0.0000
vt 0.2158 0.6493 0.0000
vt 0.2290 0.9137 0.0000
vt 0.0749 0.5997 0.0000
vt 0.1127 0.5764 0.0000
vt 0.5193 0.2938 0.0000
vt 0.5775 0.2995 0.0000
vt 0.5037 0.3400 0.0000
vt 0.0170 0.9557 0.0000
vt 0.0371 0.9986 0.0000
vt 0.6356 0.2938 0.0000
vt 0.5559 0.4289 0.0000
vt 0.5423 0.1051 0.0000
vt 0.4935 0.0787 0.0000
vt 0.5297 0.0737 0.0000
vt 0.5380 0.0031 0.0000
vt 0.5715 0.1011 0.0000
vt 0.5502 0.0637 0.0000
vt 0.1720 0.5557 0.0000
# 148 texture coords

g Entrance
usemtl Entrance
s 1
f 1/1/1 2/2/2 3/3/3 4/4/4 
f 2/2/2 5/5/5 6/6/5 3/3/3 
f 5/5/5 7/7/6 8/8/6 6/6/5 
f 7/7/6 9/9/7 10/10/7 8/8/6 
f 9/9/7 11/25/8 12/27/8 10/10/7 
f 11/25/8 13/28/9 14/29/9 12/27/8 
f 13/28/9 15/30/10 16/31/10 14/29/9 
f 15/30/10 17/32/11 18/33/11 16/31/10 
f 17/32/11 19/34/12 20/35/12 18/33/11 
f 21/36/13 1/1/1 4/4/4 22/37/13 
f 23/52/14 21/36/13 22/37/13 24/53/15 
f 25/13/16 23/14/14 24/24/15 26/26/16 
s off
f 8/11/17 10/12/17 27/58/17 
f 10/12/18 12/59/18 27/58/18 
f 12/59/18 14/60/18 27/58/18 
f 14/60/17 16/61/17 28/62/17 27/58/17 
f 16/61/19 18/63/19 28/62/19 
f 18/63/19 20/64/19 28/62/19 
f 24/65/19 22/66/19 29/67/19 
s 1
f 30/16/20 31/18/21 32/19/22 33/20/23 
s off
f 27/15/24 28/17/24 34/56/24 35/57/24 
s 1
f 32/19/22 36/21/25 37/22/26 33/20/23 
f 35/23/27 38/38/28 39/39/29 
f 34/42/30 40/44/31 38/38/28 
f 38/38/28 35/23/27 34/42/30 
f 35/23/27 39/39/29 41/45/32 
f 26/26/16 24/24/15 42/40/24 43/41/24 
f 24/24/15 29/43/33 44/54/34 42/40/24 
s off
f 4/68/19 3/69/19 45/70/19 
f 31/73/35 27/15/35 35/57/35 32/74/35 
s 1
f 32/19/22 35/23/27 41/45/32 36/21/25 
s off
f 6/71/17 8/11/17 27/58/17 31/72/17 45/70/17 3/69/17 
s 1
f 45/46/36 31/18/21 46/47/37 
f 47/48/38 46/47/37 48/49/39 
f 31/18/21 30/16/20 46/47/37 
f 47/48/38 29/50/33 45/46/36 
f 45/46/36 46/47/37 47/48/38 
f 46/47/37 30/16/20 48/49/39 
f 44/51/34 29/50/33 47/48/38 
s off
f 4/68/40 45/70/40 29/67/40 22/66/40 
s 1
f 47/48/38 48/49/39 44/51/34 
f 44/54/34 48/55/39 42/40/24 
f 49/75/41 50/78/42 51/77/43 52/76/44 
f 52/76/44 51/77/43 53/80/45 54/79/45 
f 54/79/45 53/80/45 55/82/46 56/81/46 
f 56/81/46 55/82/46 57/84/47 58/83/47 
f 58/83/47 57/84/47 59/86/48 60/85/48 
f 60/85/48 59/86/48 61/88/49 62/87/49 
f 62/87/49 61/88/49 63/90/50 64/89/50 
f 64/89/50 63/90/50 65/92/51 66/91/51 
f 66/91/51 65/92/51 20/94/12 19/93/12 
f 67/95/52 68/96/52 50/78/42 49/75/41 
f 69/97/53 70/98/54 68/96/52 67/95/52 
f 25/99/16 26/102/16 70/101/54 69/100/53 
s off
f 55/103/19 71/105/19 57/104/19 
f 57/104/18 71/105/18 59/106/18 
f 59/106/18 71/105/18 61/107/18 
f 61/107/19 71/105/19 28/109/19 63/108/19 
f 63/108/17 28/109/17 65/110/17 
f 65/110/17 28/109/17 20/111/17 
f 70/112/17 72/114/17 68/113/17 
s 1
f 73/115/55 74/118/56 75/117/57 76/116/58 
s off
f 71/119/24 77/122/24 34/121/24 28/120/24 
s 1
f 75/117/57 74/118/56 78/124/59 79/123/60 
f 77/125/61 80/127/62 81/126/63 
f 34/128/30 81/126/63 40/129/31 
f 81/126/63 34/128/30 77/125/61 
f 77/125/61 82/130/64 80/127/62 
f 26/102/16 43/132/24 83/131/65 70/101/54 
f 70/101/54 83/131/65 84/134/66 72/133/67 
s off
f 50/135/17 85/137/17 51/136/17 
f 76/138/68 75/139/68 77/122/68 71/119/68 
s 1
f 75/117/57 79/123/60 82/130/64 77/125/61 
s off
f 71/105/19 55/103/19 53/140/19 51/136/19 85/137/19 76/141/19 
s 1
f 85/142/69 86/143/70 76/116/58 
f 87/144/71 88/145/72 86/143/70 
f 76/116/58 86/143/70 73/115/55 
f 87/144/71 85/142/69 72/146/67 
f 85/142/69 87/144/71 86/143/70 
f 86/143/70 88/145/72 73/115/55 
f 84/147/66 87/144/71 72/146/67 
s off
f 50/135/18 68/113/18 72/114/18 85/137/18 
s 1
f 87/144/71 84/147/66 88/145/72 
f 84/134/66 83/131/65 88/148/72 
# 44 polygons - 40 triangles

