# 3ds Max Wavefront OBJ Exporter v0.97b - (c)2007 guruware
# File Created: 09.08.2018 09:30:38

mtllib cave_tile_4.mtl

#
# object cave_tile_4
#

v  -0.0000 0.0000 -10.0000
v  -2.3096 0.0000 -10.0000
v  -2.3096 0.0000 -8.4237
v  -0.0000 0.0000 -8.4237
v  -2.6645 1.8712 -10.0000
v  -2.6645 1.8712 -8.4237
v  -1.9355 3.8735 -10.0000
v  -1.9355 3.8735 -8.4237
v  -0.0000 4.8268 -10.0000
v  -0.0000 4.8268 -8.4237
v  1.9355 3.8735 -10.0000
v  1.9355 3.8735 -8.4237
v  2.6645 1.8712 -10.0000
v  2.6645 1.8712 -8.4237
v  2.3096 0.0000 -10.0000
v  2.3096 0.0000 -8.4237
v  -1.8213 0.0000 -7.1214
v  0.2668 0.0000 -6.5999
v  -2.1608 1.8712 -7.1507
v  -1.4631 3.8735 -7.0904
v  0.6273 4.8268 -6.7957
v  1.9482 3.8735 -6.2520
v  2.5874 1.8712 -6.2614
v  2.3566 0.0000 -6.2491
v  10.0000 0.0000 -0.0000
v  10.0000 0.0000 -2.3096
v  8.9974 0.0000 -2.3096
v  8.9974 0.0000 -0.0000
v  10.0000 1.8712 -2.6645
v  8.9974 1.8712 -2.6645
v  10.0000 3.8735 -1.9355
v  8.9974 3.8735 -1.9355
v  10.0000 4.8268 -0.0000
v  8.9974 4.8268 -0.0000
v  10.0000 3.8735 1.9355
v  8.9974 3.8735 1.9355
v  10.0000 1.8712 2.6645
v  8.9974 1.8712 2.6645
v  10.0000 0.0000 2.3096
v  8.9974 0.0000 2.3096
v  4.6298 0.0000 0.2774
v  5.6754 0.0000 2.6247
v  4.6295 1.8712 -0.0655
v  4.5573 3.8735 0.6770
v  5.5223 4.8268 2.4972
v  6.4588 3.8735 4.2417
v  6.5191 1.8712 4.9285
v  6.4898 0.0000 4.5942
v  0.6202 0.0000 -4.0817
v  -3.1576 0.0000 -4.3320
v  -2.2244 0.0000 -3.8106
v  2.4867 0.0000 -3.0388
v  0.2961 1.8712 -4.1402
v  -3.4788 1.8712 -4.3497
v  0.9624 3.8735 -4.0196
v  -2.8185 3.8735 -4.3130
v  3.2078 4.8268 -3.4303
v  -1.6958 4.3502 -4.0184
v  1.8061 3.8735 4.9043
v  4.7290 1.8712 6.3934
v  4.7600 0.0000 6.0528
v  -4.3850 0.0000 -3.5078
v  -3.0621 0.0000 0.9038
v  -1.5629 0.0000 -1.6047
v  3.9140 3.8735 -2.3430
v  -0.9020 3.8735 -1.1897
v  -0.7090 4.8268 -3.2849
v  4.4634 1.8712 -2.3618
v  -0.6133 1.8712 -1.1917
v  4.3568 0.0000 -2.3372
v  -0.6279 0.0000 -1.2540
v  0.7756 0.0000 4.5224
v  0.6617 1.8712 4.5671
v  0.6633 3.8735 4.5752
v  0.8232 4.8268 4.7277
v  0.0000 0.0000 10.0000
v  2.3096 0.0000 10.0000
v  2.3096 0.0000 9.2745
v  0.0000 0.0000 9.2745
v  2.6645 1.8712 10.0000
v  2.6645 1.8712 9.2745
v  1.9355 3.8735 10.0000
v  1.9355 3.8735 9.2745
v  0.0000 4.8268 10.0000
v  0.0000 4.8268 9.2745
v  -1.9355 3.8735 10.0000
v  -1.9355 3.8735 9.2745
v  -2.6645 1.8712 10.0000
v  -2.6645 1.8712 9.2745
v  -2.3096 0.0000 10.0000
v  -2.3096 0.0000 9.2745
v  -10.0000 0.0000 0.0000
v  -10.0000 0.0000 2.3096
v  -8.5808 0.0000 2.3096
v  -8.5808 0.0000 -0.0000
v  -10.0000 1.8712 2.6645
v  -8.5808 1.8712 2.6645
v  -10.0000 3.8735 1.9355
v  -8.5808 3.8735 1.9355
v  -10.0000 4.8268 0.0000
v  -8.5808 4.8268 -0.0000
v  -10.0000 3.8735 -1.9355
v  -8.5808 3.8735 -1.9355
v  -10.0000 1.8712 -2.6645
v  -8.5808 1.8712 -2.6645
v  -10.0000 0.0000 -2.3096
v  -8.5808 0.0000 -2.3096
v  -0.3021 4.8268 5.7075
v  -1.6486 4.3502 7.5680
v  -1.4101 3.8735 6.3320
v  -0.1335 4.8268 6.0037
v  -0.5644 4.8268 6.9660
v  1.7918 3.8735 7.4362
v  0.2383 4.3502 7.1604
v  1.0480 4.8268 5.1227
v  2.8818 1.8712 7.3826
v  2.6483 1.8712 8.7319
v  2.8163 0.0000 7.1271
v  -1.5734 0.0000 6.2747
v  -1.8087 1.8712 6.2999
v  0.1862 4.8268 7.0473
v  -0.7137 4.8268 7.9808
v  -0.6575 4.8268 8.0796
v  2.4864 0.0000 8.5616
v  -2.3086 0.0000 8.3870
v  -2.6654 1.8712 8.3928
v  -1.8698 3.8735 8.4489
v  -3.1395 1.8712 1.0529
v  -7.0364 0.0000 2.0950
v  -7.1925 1.8712 2.3249
v  -6.3722 0.0000 -2.4900
v  -4.7031 1.8712 -3.4846
v  -6.5313 1.8712 -2.6559
v  -4.0489 3.8735 -3.5319
v  -6.2042 3.8735 -2.3151
v  -5.4561 4.8268 -1.4677
v  -5.9962 4.8268 -0.1408
v  -3.1675 3.8735 1.0382
v  -6.8715 3.8735 1.8529
v  -1.3666 4.8268 -3.5381
v  -3.3905 4.8268 -2.5713
v  -2.0753 4.8268 -2.0650
v  0.3311 0.0000 -5.3332
v  2.3084 0.0000 -4.5510
v  -0.0007 1.8712 -5.3771
v  0.6813 3.8735 -5.2867
v  2.8492 4.8268 -4.8447
v  3.8628 3.8735 -4.0292
v  4.4570 1.8712 -4.0433
v  4.2884 0.0000 -4.0248
v  0.2986 4.8268 7.2448
# 151 vertices

vn 0.0000 1.0000 -0.0000
vn 0.6378 0.7702 -0.0000
vn 0.6670 0.7348 -0.1236
vn 0.9967 -0.0808 -0.0000
vn 0.9804 -0.0773 -0.1813
vn 0.7444 -0.6677 -0.0000
vn 0.7533 -0.6447 -0.1298
vn 0.0000 -1.0000 -0.0000
vn 0.0510 -0.9985 -0.0197
vn -0.7444 -0.6677 0.0000
vn -0.7441 -0.6681 0.0022
vn -0.9967 -0.0808 0.0000
vn -0.9966 -0.0805 -0.0177
vn -0.6378 0.7702 0.0000
vn -0.6352 0.7724 0.0069
vn 0.5713 0.7031 -0.4234
vn 0.8212 -0.0611 -0.5674
vn 0.6704 -0.5797 -0.4632
vn -0.0570 -0.9954 -0.0768
vn -0.7770 -0.5179 0.3578
vn -0.9360 -0.0914 0.3400
vn -0.5294 0.8246 0.1995
vn 0.0000 0.7701 0.6379
vn 0.1898 0.7176 0.6700
vn 0.0000 -0.0808 0.9967
vn 0.2538 -0.0755 0.9643
vn 0.0000 -0.6677 0.7444
vn 0.2061 -0.6293 0.7493
vn 0.0603 -0.9947 0.0839
vn -0.0000 -0.6677 -0.7444
vn -0.2813 -0.6872 -0.6698
vn -0.0000 -0.0807 -0.9967
vn -0.3830 -0.0793 -0.9203
vn -0.0000 0.7702 -0.6378
vn -0.1861 0.8445 -0.5023
vn 0.4412 0.7250 0.5289
vn 0.6287 -0.0589 0.7754
vn 0.4848 -0.6250 0.6119
vn 0.0009 -0.9982 -0.0603
vn -0.3464 -0.6217 -0.7025
vn -0.6509 -0.0639 -0.7565
vn -0.4351 0.7521 -0.4951
vn 0.2439 0.9508 0.1912
vn 0.1706 0.6589 0.7326
vn 0.7150 -0.0685 0.6958
vn 0.3207 -0.0319 0.9466
vn 0.3728 -0.6693 0.6427
vn 0.2198 -0.4713 0.8542
vn -0.4238 -0.8987 -0.1127
vn 0.0770 -0.6300 0.7727
vn -0.5751 -0.6451 -0.5031
vn -0.5148 -0.3893 -0.7638
vn -0.3887 0.7347 -0.5561
vn 0.3410 0.7465 0.5714
vn -0.3636 0.6796 -0.6371
vn -0.6570 -0.4730 -0.5870
vn -0.4414 -0.5628 -0.6989
vn -0.0545 -0.9839 -0.1700
vn -0.8040 -0.0853 -0.5884
vn -0.4501 -0.0148 -0.8929
vn -0.6233 0.6005 -0.5010
vn -0.2831 0.7789 -0.5596
vn 0.4560 0.7374 0.4984
vn 0.6704 0.0097 0.7420
vn 0.6729 -0.1155 0.7307
vn 0.3566 -0.7552 0.5500
vn -0.6028 0.7946 -0.0726
vn -0.9966 -0.0806 0.0148
vn -0.7481 -0.6629 0.0292
vn -0.0690 -0.9969 0.0378
vn 0.7481 -0.6629 0.0297
vn 0.9967 -0.0808 -0.0005
vn 0.6379 0.7701 0.0004
vn -0.0455 0.7565 -0.6524
vn -0.0000 -0.0808 -0.9967
vn -0.1170 -0.0788 -0.9900
vn -0.0180 -0.6648 -0.7468
vn 0.0352 -0.9987 -0.0360
vn 0.0586 -0.6763 0.7343
vn -0.0021 -0.0807 0.9967
vn 0.0000 0.7702 0.6378
vn 0.0255 0.7783 0.6273
vn 0.4541 -0.7978 0.3966
vn 0.7872 -0.6110 0.0831
vn 0.8093 -0.3150 0.4958
vn -0.1266 -0.9892 -0.0733
vn -0.6673 -0.7446 0.0178
vn -0.6572 -0.7414 -0.1359
vn -0.3404 -0.8033 -0.4888
vn -0.6206 0.6597 -0.4238
vn -0.9845 -0.1680 -0.0509
vn -0.4260 0.8401 -0.3359
vn 0.5839 0.6806 0.4426
vn 0.7915 -0.0367 0.6101
vn 0.9899 0.1010 0.0997
vn 0.3254 -0.9454 -0.0204
vn -0.1323 -0.9912 0.0087
vn -0.6527 0.7414 -0.1557
vn 0.6656 0.7373 0.1155
vn 0.9780 -0.0928 0.1869
vn 0.9406 -0.3184 0.1176
vn -0.4889 0.0181 -0.8722
vn -0.1500 0.7261 -0.6711
vn -0.2652 -0.0434 -0.9632
vn 0.1729 0.7875 0.5916
vn 0.4854 -0.0321 0.8737
vn 0.1962 -0.0472 0.9794
vn 0.4258 -0.5656 0.7062
vn 0.2751 -0.5106 0.8146
vn 0.3054 -0.8391 0.4502
vn 0.1574 -0.9393 0.3048
vn -0.0539 -0.9679 -0.2456
vn -0.4064 -0.4996 -0.7650
vn -0.1053 -0.5986 -0.7941
vn 0.0638 -0.9144 0.3997
vn 0.1542 -0.9395 0.3060
vn -0.1684 -0.9632 -0.2095
vn 0.4866 0.8257 -0.2854
vn 0.8271 -0.0598 -0.5588
vn 0.6538 -0.6093 -0.4486
vn -0.3369 -0.8388 0.4277
vn -0.8457 -0.4491 0.2883
vn -0.9386 -0.0902 0.3329
vn -0.6870 0.6719 0.2768
vn -0.8062 -0.5351 -0.2525
# 125 vertex normals

vt 0.5000 0.0000 0.0000
vt 0.6250 0.0000 0.0000
vt 0.7500 0.5000 0.0000
vt 0.6250 0.5000 0.0000
vt 0.5000 0.5000 0.0000
vt 0.3750 0.5000 0.0000
vt 0.2500 0.5000 0.0000
vt 0.2500 0.0000 0.0000
vt 0.5625 0.0000 0.0000
vt 0.5625 0.5000 0.0000
vt 0.4583 0.0000 0.0000
vt 0.4792 0.0000 0.0000
vt 0.3542 0.0000 0.0000
vt 0.4375 0.5000 0.0000
# 14 texture coords

o cave_tile_4
g cave_tile_4
usemtl Cave_Ground
s off
f 1/1/1 2/2/2 3/2/3 4/1/1 
usemtl Cave_Walls
f 2/2/2 5/3/4 6/3/5 3/2/3 
f 5/3/4 7/4/6 8/4/7 6/3/5 
f 7/4/6 9/5/8 10/5/9 8/4/7 
f 9/5/8 11/6/10 12/6/11 10/5/9 
f 11/6/10 13/7/12 14/7/13 12/6/11 
f 13/7/12 15/8/14 16/8/15 14/7/13 
usemtl Cave_Ground
f 15/8/14 1/1/1 4/1/1 16/8/15 
f 4/1/1 3/2/3 17/2/16 18/1/1 
usemtl Cave_Walls
f 3/2/3 6/3/5 19/3/17 17/2/16 
f 6/3/5 8/4/7 20/4/18 19/3/17 
f 8/4/7 10/5/9 21/5/19 20/4/18 
f 10/5/9 12/6/11 22/6/20 21/5/19 
f 12/6/11 14/7/13 23/7/21 22/6/20 
f 14/7/13 16/8/15 24/8/22 23/7/21 
usemtl Cave_Ground
f 16/8/15 4/1/1 18/1/1 24/8/22 
f 25/1/1 26/2/23 27/2/24 28/1/1 
usemtl Cave_Walls
f 26/2/23 29/3/25 30/3/26 27/2/24 
f 29/3/25 31/4/27 32/4/28 30/3/26 
f 31/4/27 33/5/8 34/5/29 32/4/28 
f 33/5/8 35/6/30 36/6/31 34/5/29 
f 35/6/30 37/7/32 38/7/33 36/6/31 
f 37/7/32 39/8/34 40/8/35 38/7/33 
usemtl Cave_Ground
f 39/8/34 25/1/1 28/1/1 40/8/35 
f 28/1/1 27/2/24 41/2/36 42/1/1 
usemtl Cave_Walls
f 27/2/24 30/3/26 43/3/37 41/2/36 
f 30/3/26 32/4/28 44/4/38 43/3/37 
f 32/4/28 34/5/29 45/5/39 44/4/38 
f 34/5/29 36/6/31 46/6/40 45/5/39 
f 36/6/31 38/7/33 47/7/41 46/6/40 
f 38/7/33 40/8/35 48/8/42 47/7/41 
usemtl Cave_Ground
f 40/8/35 28/1/1 42/1/1 48/8/42 
f 49/2/43 50/2/44 51/9/1 52/1/1 
usemtl Cave_Walls
f 53/3/45 54/3/46 50/2/44 49/2/43 
f 55/4/47 56/4/48 54/3/46 53/3/45 
f 57/5/49 58/10/50 56/4/48 55/4/47 
f 46/6/40 59/6/51 45/5/39 
f 47/7/41 60/7/52 59/6/51 46/6/40 
f 48/8/42 61/8/53 60/7/52 47/7/41 
usemtl Cave_Ground
f 42/1/1 61/8/53 48/8/42 
f 62/2/54 63/11/55 64/12/1 51/9/1 
usemtl Cave_Walls
f 65/6/56 66/6/57 67/5/58 57/5/49 
f 68/7/59 69/7/60 66/6/57 65/6/56 
f 70/8/61 71/13/62 69/7/60 68/7/59 
usemtl Cave_Ground
f 52/1/1 64/12/1 71/13/62 70/8/61 
f 41/2/36 72/11/63 42/1/1 
usemtl Cave_Walls
f 43/3/37 73/3/64 72/11/63 41/2/36 
f 44/4/38 74/4/65 73/3/64 43/3/37 
f 45/5/39 75/5/66 74/4/65 44/4/38 
usemtl Cave_Ground
f 42/1/1 72/11/63 61/8/53 
f 76/1/1 77/2/14 78/2/67 79/1/1 
usemtl Cave_Walls
f 77/2/14 80/3/12 81/3/68 78/2/67 
f 80/3/12 82/4/10 83/4/69 81/3/68 
f 82/4/10 84/5/8 85/5/70 83/4/69 
f 84/5/8 86/6/6 87/6/71 85/5/70 
f 86/6/6 88/7/4 89/7/72 87/6/71 
f 88/7/4 90/8/2 91/8/73 89/7/72 
usemtl Cave_Ground
f 90/8/2 76/1/1 79/1/1 91/8/73 
f 92/1/1 93/2/34 94/2/74 95/1/1 
usemtl Cave_Walls
f 93/2/34 96/3/75 97/3/76 94/2/74 
f 96/3/75 98/4/30 99/4/77 97/3/76 
f 98/4/30 100/5/8 101/5/78 99/4/77 
f 100/5/8 102/6/27 103/6/79 101/5/78 
f 102/6/27 104/7/25 105/7/80 103/6/79 
f 104/7/25 106/8/81 107/8/82 105/7/80 
usemtl Cave_Ground
f 106/8/81 92/1/1 95/1/1 107/8/82 
usemtl Cave_Walls
f 108/5/83 109/14/84 110/6/85 
f 111/5/86 112/5/1 108/5/83 
f 59/6/51 113/6/87 114/14/88 111/5/86 115/5/89 
f 59/6/51 60/7/52 116/7/90 117/7/91 113/6/87 
f 60/7/52 61/8/53 118/8/92 116/7/90 
usemtl Cave_Ground
f 61/8/53 72/11/63 119/13/93 118/8/92 
usemtl Cave_Walls
f 72/11/63 73/7/64 120/7/94 119/13/93 
f 73/7/64 74/6/65 110/6/85 120/7/94 
f 75/5/66 45/5/39 115/5/89 
f 115/5/89 45/5/39 59/6/51 
f 121/5/95 122/5/96 109/14/84 
f 123/5/97 122/5/96 112/5/1 
f 113/6/87 83/6/69 85/5/70 123/5/97 114/14/88 
f 117/7/91 81/7/68 83/6/69 113/6/87 
f 124/8/98 78/8/67 81/7/68 117/7/91 
usemtl Cave_Ground
f 125/8/99 91/8/73 78/8/67 124/8/98 
usemtl Cave_Walls
f 126/7/100 89/7/72 91/8/73 125/8/99 
f 127/6/101 87/6/71 89/7/72 126/7/100 
f 128/3/102 63/11/55 129/2/103 130/3/104 
usemtl Cave_Ground
f 63/11/55 62/2/54 131/2/105 129/2/103 
usemtl Cave_Walls
f 62/2/54 132/3/106 133/3/107 131/2/105 
f 132/3/106 134/4/108 135/4/109 133/3/107 
f 134/4/108 134/4/110 136/5/111 135/4/109 
f 137/5/112 138/4/113 139/4/114 
f 138/4/113 128/3/102 130/3/104 139/4/114 
f 129/2/103 94/2/74 97/3/76 130/3/104 
usemtl Cave_Ground
f 131/2/105 107/2/82 94/2/74 129/2/103 
usemtl Cave_Walls
f 133/3/107 105/3/80 107/2/82 131/2/105 
f 135/4/109 103/4/79 105/3/80 133/3/107 
f 136/5/111 101/5/78 103/4/79 135/4/109 
f 137/5/112 101/5/78 136/5/111 
f 139/4/114 99/4/77 101/5/78 137/5/112 
f 130/3/104 97/3/76 99/4/77 139/4/114 
f 134/4/108 58/10/50 140/5/115 141/5/116 134/4/110 
f 141/5/116 140/5/115 67/5/58 142/5/117 
f 138/6/113 137/5/112 142/5/117 
f 142/5/117 137/5/112 136/5/111 141/5/116 
f 141/5/116 136/5/111 134/4/110 
usemtl Cave_Ground
f 50/2/44 62/2/54 51/9/1 
usemtl Cave_Walls
f 54/3/46 132/3/106 62/2/54 50/2/44 
f 56/4/48 134/4/108 132/3/106 54/3/46 
f 58/10/50 134/4/108 56/4/48 
usemtl Cave_Ground
f 64/12/1 52/1/1 51/9/1 
usemtl Cave_Walls
f 66/6/57 138/6/113 142/5/117 67/5/58 
f 69/7/60 128/7/102 138/6/113 66/6/57 
f 71/13/62 63/11/55 128/7/102 69/7/60 
usemtl Cave_Ground
f 64/12/1 63/11/55 71/13/62 
usemtl Cave_Walls
f 58/10/50 57/5/49 140/5/115 
f 140/5/115 57/5/49 67/5/58 
usemtl Cave_Ground
f 17/2/16 143/2/118 144/1/1 18/1/1 
usemtl Cave_Walls
f 19/3/17 145/3/119 143/2/118 17/2/16 
f 20/4/18 146/4/120 145/3/119 19/3/17 
f 21/5/19 147/5/121 146/4/120 20/4/18 
f 22/6/20 148/6/122 147/5/121 21/5/19 
f 23/7/21 149/7/123 148/6/122 22/6/20 
f 24/8/22 150/8/124 149/7/123 23/7/21 
usemtl Cave_Ground
f 18/1/1 144/1/1 150/8/124 24/8/22 
f 143/2/118 49/2/43 52/1/1 144/1/1 
usemtl Cave_Walls
f 145/3/119 53/3/45 49/2/43 143/2/118 
f 146/4/120 55/4/47 53/3/45 145/3/119 
f 147/5/121 57/5/49 55/4/47 146/4/120 
f 148/6/122 65/6/56 57/5/49 147/5/121 
f 149/7/123 68/7/59 65/6/56 148/6/122 
f 150/8/124 70/8/61 68/7/59 149/7/123 
usemtl Cave_Ground
f 144/1/1 52/1/1 70/8/61 150/8/124 
usemtl Cave_Walls
f 109/14/84 127/6/101 110/6/85 
f 108/5/83 121/5/95 109/14/84 
f 110/6/85 74/6/65 75/5/66 108/5/83 
f 112/5/1 121/5/95 108/5/83 
f 111/5/86 151/5/125 112/5/1 
f 108/5/83 75/5/66 115/5/89 111/5/86 
f 114/14/88 151/5/125 111/5/86 
f 118/8/92 124/8/98 117/7/91 116/7/90 
usemtl Cave_Ground
f 119/13/93 125/8/99 124/8/98 118/8/92 
usemtl Cave_Walls
f 120/7/94 126/7/100 125/8/99 119/13/93 
f 110/6/85 127/6/101 126/7/100 120/7/94 
f 122/5/96 85/5/70 87/6/71 127/6/101 109/14/84 
f 122/5/96 121/5/95 112/5/1 
f 123/5/97 85/5/70 122/5/96 
f 112/5/1 151/5/125 123/5/97 
f 123/5/97 151/5/125 114/14/88 
# 118 polygons - 29 triangles

